<?xml version="1.0" encoding="UTF-8" standalone="no"?>
<!-- Created with Inkscape (http://www.inkscape.org/) -->

<svg
   xmlns:dc="http://purl.org/dc/elements/1.1/"
   xmlns:cc="http://creativecommons.org/ns#"
   xmlns:rdf="http://www.w3.org/1999/02/22-rdf-syntax-ns#"
   xmlns:svg="http://www.w3.org/2000/svg"
   xmlns="http://www.w3.org/2000/svg"
   xmlns:sodipodi="http://sodipodi.sourceforge.net/DTD/sodipodi-0.dtd"
   xmlns:inkscape="http://www.inkscape.org/namespaces/inkscape"
   width="5.9839997in"
   height="3.7498658in"
   viewBox="0 0 538.55998 337.48791"
   id="svg3458"
   version="1.1"
   inkscape:version="0.91 r13725"
   sodipodi:docname="battlebunnies outline.svg">
  <sodipodi:namedview
     id="base"
     pagecolor="#ffffff"
     bordercolor="#666666"
     borderopacity="1.0"
     inkscape:pageopacity="0.0"
     inkscape:pageshadow="2"
     inkscape:zoom="1.4"
     inkscape:cx="298.84821"
     inkscape:cy="322.88196"
     inkscape:document-units="px"
     inkscape:current-layer="layer1"
     showgrid="false"
     inkscape:window-width="2048"
     inkscape:window-height="1089"
     inkscape:window-x="-8"
     inkscape:window-y="40"
     inkscape:window-maximized="1"
     fit-margin-top="0"
     fit-margin-left="0"
     fit-margin-right="0"
     fit-margin-bottom="0"
     units="in" />
  <defs
     id="defs3460" />
  <metadata
     id="metadata3463">
    <rdf:RDF>
      <cc:Work
         rdf:about="">
        <dc:format>image/svg+xml</dc:format>
        <dc:type
           rdf:resource="http://purl.org/dc/dcmitype/StillImage" />
        <dc:title></dc:title>
      </cc:Work>
    </rdf:RDF>
  </metadata>
  <g
     transform="translate(21.423796,-114.31385)"
     id="layer1"
     inkscape:groupmode="layer"
     inkscape:label="Layer 1">
    <path
       sodipodi:nodetypes="sscssscscscssscssssssssssssscssscssssssssscccs"
       inkscape:connector-curvature="0"
       id="path6172"
       d="m -15.822866,349.35516 1.675881,6.22638 1.68454,6.22482 1.716985,6.21525 1.8053367,6.19059 2.0419984,6.11343 2.7676505,5.81145 4.56702352,4.47262 5.68642768,3.03215 5.7282512,2.90683 5.66754,3.01864 -2.605402,6.55566 -2.558723,5.81118 0.958731,6.15308 3.160989,5.51824 3.448928,5.34676 6.549821,9.77635 7.546768,8.99026 11.096,2.20022 9.454313,0.87931 10.440624,0.40132 9.329289,-6.65318 4.602667,-4.16132 4.602668,-4.16133 -0.191419,-6.95734 -0.19142,-6.95734 -0.336576,-7.66755 -0.885403,-7.60474 7.44392,-2.37039 7.87236,-1.34204 6.481807,-1.0477 6.44003,-1.28523 6.37304,-1.5854 6.26638,-1.95813 6.1063,-2.40898 5.87552,-2.93007 5.55879,-3.48993 5.17038,-4.0439 4.73953,-4.5415 4.31082,-4.9537 3.91602,-5.27054 3.57689,-5.50651 3.29757,-5.67994 3.07147,-5.80417 2.91844,-5.88672 2.82733,-5.93344 2.75105,-5.96666 2.6776,-6.00254 2.58777,-6.04137 2.44216,-6.10019 3.15955,-8.27371 3.31296,-8.20883 9.40872,6.81592 8.21168,5.77989 9.1426,4.15183 9.85002,1.81788 6.4945,-1.13072 6.20055,-2.294 5.99309,-2.80107 5.84834,-3.08829 5.74665,-3.27764 5.66797,-3.41156 5.60528,-3.51176 5.5558,-3.59091 8.85722,-5.74412 8.9196,-5.64612 9.12009,-5.29069 10.18691,6.00229 6.05252,3.91274 6.23513,3.61434 6.3828,3.35115 6.49976,3.11295 6.59997,2.8978 6.68323,2.69891 6.75617,2.51422 6.81799,2.33971 6.87215,2.17375 6.92095,2.01473 6.96376,1.86047 7.00208,1.70979 7.03839,1.5618 7.06847,1.41427 7.09611,1.2669 7.12107,1.11846 7.14128,0.96756 7.16235,0.81379 7.1784,0.65518 7.19146,0.49073 7.20144,0.31899 7.20748,0.13831 6.39297,-0.008 6.39239,-0.12218 6.38666,-0.27861 6.37495,-0.49984 6.33909,-0.82694 6.2499,-1.34191 5.98974,-2.20882 5.18868,-3.6789 3.22093,-5.45846 0.87854,-6.30876 -1.1774,-6.64194 -3.0046,-6.06043 -4.11047,-5.3817 -4.77511,-4.8061 -5.19983,-4.34525 -5.49132,-3.97541 -5.69731,-3.66862 -5.85616,-3.41379 -5.97877,-3.19464 -6.07749,-3.00395 -6.15693,-2.83458 -6.22371,-2.68325 -6.28119,-2.5466 -6.33042,-2.42163 -6.37342,-2.30651 -6.41333,-2.2004 -10.78958,-3.38786 -10.87829,-3.08583 -10.95257,-2.80947 -11.05373,-2.38652 -7.05801,-1.25637 -7.05444,-1.27624 -7.01802,-1.45568 -2.45899,-3.52896 6.65157,-2.6602 6.75205,-2.4091 6.80751,-2.54369 6.74206,-2.71467 6.67743,-2.86936 6.61492,-3.01164 6.55243,-3.14327 6.49247,-3.26786 6.43089,-3.38533 6.36959,-3.4985 6.30791,-3.60878 6.24422,-3.71701 6.17821,-3.82481 6.10968,-3.93418 6.03658,-4.04625 5.9566,-4.1625 5.86821,-4.2858 5.7686,-4.41972 5.65175,-4.56788 5.51099,-4.73771 5.33041,-4.93741 5.0886,-5.18834 4.72502,-5.51827 4.09407,-5.99723 2.63563,-6.73526 -1.84109,-6.72849 -5.58047,-2.94728 -6.18419,-1.48339 -6.30709,-0.85014 -6.34911,-0.45542 -6.36204,-0.16324 -6.36469,0.0758 -6.35877,0.2853 -6.34619,0.47791 -7.08639,0.69777 -7.07405,0.81808 -7.05948,0.94144 -7.0392,1.06775 -7.01876,1.19823 -6.99498,1.33298 -6.96713,1.47247 -6.93657,1.61762 -6.89714,1.76784 -6.85563,1.92561 -6.80804,2.09115 -6.74989,2.26428 -6.68768,2.44865 -6.6118,2.64288 -6.52512,2.85012 -6.4239,3.07163 -6.30534,3.30952 -6.16336,3.56477 -5.99605,3.84138 -5.79423,4.14011 -5.54871,4.46198 -5.25072,4.8092 -7.00352,6.87955 -7.0035,6.87956 -5.60882,-5.60376 -5.60885,-5.60377 -4.45353,-4.27662 -4.60176,-4.11446 -4.72955,-3.96726 -4.84449,-3.82531 -4.9549,-3.68249 -5.06525,-3.52927 -5.18358,-3.35513 -5.31514,-3.13774 -5.48183,-2.83894 -5.70946,-2.33859 -5.81577,-1.55507 -5.97,-0.76677 -6.01563,0.12742 -5.92986,1.02564 -5.7367,1.82359 -5.49097,2.46745 -5.7619,3.8565 -5.31245,4.46885 -5.0495,4.76579 -4.8139,5.00237 -4.52384,5.26866 -3.93265,5.71191 -5.51543,4.1229 -7.15279,0.46034 -6.92795,-0.27504 -6.89517,-0.736 -6.84779,-1.09588 -6.7945,-1.38487 -6.74291,-1.62327 -6.69191,-1.82361 -6.64133,-1.99443 -6.59657,-2.1436 -6.55221,-2.27412 -6.51096,-2.39024 -6.237828,-2.27562 -6.286477,-2.13053 -6.343322,-1.95669 -6.405613,-1.74228 -6.47433,-1.47125 -6.542136,-1.11621 -6.606843,-0.63402 -6.634957,0.0544 -6.538638,1.08136 -6.079122,2.60818 -5.2106,4.52542 -2.889715,6.22591 0.258594,6.87847 2.454846,6.46786 3.633821,5.89806 4.30221,5.43447 4.72149,5.07418 5.009887,4.79199 7.534067,6.94898 -1.686172,3.55825 -6.370005,-1.64363 -6.114282,-2.42854 -5.768517,-3.16325 -5.477029,-3.65088 -5.28158,-3.92488 -5.167312,-4.07779 -8.2475936,-6.26653 -8.8836296,-5.22971 -7.8275396,5.84093 -3.8565182,9.39398 -2.016132,10.75476 0.161527,10.93392 2.081875,10.749 1.531856,8.53907 -2.406774,8.24773 -3.126753,10.94315 -0.243692,11.41004 2.805201,11.01821 0.351316,8.97059 -3.53016,5.93617 -1.66946,6.77391 -0.851948,6.93016 -0.339517,6.97716 0.04769,6.98534 0.376076,6.9738 0.679051,6.9522 0.977357,6.91561 1.288737,6.86623 1.629954,6.79217 0,0"
       style="fill:none;fill-opacity:0.50222222;stroke:#000000;stroke-width:1.20412242;stroke-linecap:round;stroke-linejoin:round;stroke-miterlimit:4;stroke-dasharray:none;stroke-dashoffset:0;stroke-opacity:1" />
  </g>
</svg>
