<?xml version="1.0" encoding="UTF-8" standalone="no"?>
<!-- Created with Inkscape (http://www.inkscape.org/) -->

<svg
   xmlns:dc="http://purl.org/dc/elements/1.1/"
   xmlns:cc="http://creativecommons.org/ns#"
   xmlns:rdf="http://www.w3.org/1999/02/22-rdf-syntax-ns#"
   xmlns:svg="http://www.w3.org/2000/svg"
   xmlns="http://www.w3.org/2000/svg"
   xmlns:sodipodi="http://sodipodi.sourceforge.net/DTD/sodipodi-0.dtd"
   xmlns:inkscape="http://www.inkscape.org/namespaces/inkscape"
   width="151.99361mm"
   height="95.407829mm"
   viewBox="0 0 538.56002 338.05924"
   id="svg4263"
   version="1.1"
   inkscape:version="0.91 r13725"
   sodipodi:docname="battlebunnies silk.svg">
  <defs
     id="defs4265">
    <inkscape:path-effect
       effect="skeletal"
       id="path-effect5904"
       is_visible="true"
       pattern="m 324.53804,482.47941 -1.01015,3.27557 11.01015,2.08157 z"
       copytype="single_stretched"
       prop_scale="1"
       scale_y_rel="false"
       spacing="0"
       normal_offset="0"
       tang_offset="0"
       prop_units="false"
       vertical_pattern="false"
       fuse_tolerance="0"
       pattern-nodetypes="cccc" />
    <inkscape:path-effect
       effect="skeletal"
       id="path-effect4228"
       is_visible="true"
       pattern="m 324.53804,482.47941 -1.01015,3.27557 11.01015,2.08157 z"
       copytype="single_stretched"
       prop_scale="1"
       scale_y_rel="false"
       spacing="0"
       normal_offset="0"
       tang_offset="0"
       prop_units="false"
       vertical_pattern="false"
       fuse_tolerance="0"
       pattern-nodetypes="cccc" />
    <inkscape:path-effect
       pattern-nodetypes="cccc"
       fuse_tolerance="0"
       vertical_pattern="false"
       prop_units="false"
       tang_offset="0"
       normal_offset="0"
       spacing="0"
       scale_y_rel="false"
       prop_scale="1"
       copytype="single_stretched"
       pattern="m 383.12689,487.53017 -1.01015,3.27557 11.01015,2.08157 z"
       is_visible="true"
       id="path-effect5950"
       effect="skeletal" />
    <inkscape:path-effect
       pattern-nodetypes="cccc"
       fuse_tolerance="0"
       vertical_pattern="false"
       prop_units="false"
       tang_offset="0"
       normal_offset="0"
       spacing="0"
       scale_y_rel="false"
       prop_scale="1"
       copytype="single_stretched"
       pattern="m 383.12689,487.53017 -1.01015,3.27557 11.01015,2.08157 z"
       is_visible="true"
       id="path-effect5952"
       effect="skeletal" />
  </defs>
  <sodipodi:namedview
     id="base"
     pagecolor="#ffffff"
     bordercolor="#666666"
     borderopacity="1.0"
     inkscape:pageopacity="0.0"
     inkscape:pageshadow="2"
     inkscape:zoom="0.7"
     inkscape:cx="894.28001"
     inkscape:cy="-110.97037"
     inkscape:document-units="px"
     inkscape:current-layer="layer1"
     showgrid="false"
     fit-margin-top="0"
     fit-margin-left="0"
     fit-margin-right="0"
     fit-margin-bottom="0"
     inkscape:window-width="1874"
     inkscape:window-height="910"
     inkscape:window-x="0"
     inkscape:window-y="123"
     inkscape:window-maximized="1" />
  <metadata
     id="metadata4268">
    <rdf:RDF>
      <cc:Work
         rdf:about="">
        <dc:format>image/svg+xml</dc:format>
        <dc:type
           rdf:resource="http://purl.org/dc/dcmitype/StillImage" />
        <dc:title></dc:title>
      </cc:Work>
    </rdf:RDF>
  </metadata>
  <g
     inkscape:label="Layer 1"
     inkscape:groupmode="layer"
     id="layer1"
     transform="translate(1229.28,-83.332585)">
    <g
       id="g5992"
       transform="matrix(0,1.4693856,-1.4693856,0,-220.99932,-407.41902)"
       inkscape:export-xdpi="400"
       inkscape:export-ydpi="400">
      <path
         style="fill:none;stroke:#000000;stroke-width:3;stroke-linecap:butt;stroke-linejoin:miter;stroke-miterlimit:4;stroke-dasharray:none;stroke-opacity:1"
         d="m 442.25458,465.05833 c 31.90996,-34.67777 44.62495,-136.73491 24.38724,-143.44888 -20.2377,-6.71397 -53.48532,63.99695 -54.28571,127.14285 -4.03983,-52.49922 -59.55994,-128.84528 -72.14286,-123.57142 -12.58292,5.27386 -0.71714,118.08842 43.57143,139.99999 0,0 -38.54239,33.88806 -35.71429,55.00001 2.8281,21.11195 29.00955,37.79501 50.46918,41.42857 20.00614,3.38745 57.14286,-20.98042 57.14286,-20.98042 32.95345,-25.48357 1.88578,-44.72412 -13.42785,-75.5707 z"
         id="path5994"
         inkscape:connector-curvature="0"
         sodipodi:nodetypes="czczczacc" />
      <g
         transform="translate(-8.0812206,-170.71578)"
         id="g5996">
        <ellipse
           ry="12.626906"
           rx="10.606602"
           cy="672.03973"
           cx="388.40366"
           id="path5998"
           style="fill:#000000;fill-opacity:1;stroke:#ffffff;stroke-width:3;stroke-linecap:round;stroke-linejoin:round;stroke-miterlimit:4;stroke-dasharray:none;stroke-dashoffset:0;stroke-opacity:1" />
        <ellipse
           ry="5.3033009"
           rx="4.7982244"
           cy="659.66541"
           cx="336.12827"
           style="fill:#ffffff;fill-opacity:1;stroke:#ffffff;stroke-width:3;stroke-linecap:round;stroke-linejoin:round;stroke-miterlimit:4;stroke-dasharray:none;stroke-dashoffset:0;stroke-opacity:1"
           id="path6000"
           transform="matrix(0.85434598,0,0,0.59645003,100.14972,274.54171)" />
      </g>
      <g
         transform="translate(46.467017,-169.70563)"
         id="g6002">
        <ellipse
           ry="12.626906"
           rx="10.606602"
           cy="672.03973"
           cx="388.40366"
           style="fill:#000000;fill-opacity:1;stroke:#ffffff;stroke-width:3;stroke-linecap:round;stroke-linejoin:round;stroke-miterlimit:4;stroke-dasharray:none;stroke-dashoffset:0;stroke-opacity:1"
           id="path6004" />
        <ellipse
           ry="5.3033009"
           rx="4.7982244"
           cy="659.66541"
           cx="336.12827"
           transform="matrix(0.85434598,0,0,0.59645003,100.14972,274.54171)"
           id="path6006"
           style="fill:#ffffff;fill-opacity:1;stroke:#ffffff;stroke-width:3;stroke-linecap:round;stroke-linejoin:round;stroke-miterlimit:4;stroke-dasharray:none;stroke-dashoffset:0;stroke-opacity:1" />
      </g>
      <path
         sodipodi:nodetypes="czc"
         inkscape:connector-curvature="0"
         id="path6008"
         d="m 393.95949,527.58794 c 0,0 2.78388,9.10743 7.07107,9.59644 4.28719,0.48901 10.6066,-9.09137 10.6066,-9.09137"
         style="fill:none;stroke:#000000;stroke-width:1px;stroke-linecap:butt;stroke-linejoin:miter;stroke-opacity:1" />
      <ellipse
         ry="45.357143"
         rx="13.881535"
         cy="575.57648"
         cx="366.78571"
         transform="matrix(0.54641945,-0.41952492,0.40625283,0.99292272,-69.605575,-13.48078)"
         id="path6010"
         style="fill:#800000;fill-opacity:0.50222222;stroke:none" />
      <ellipse
         ry="45.357143"
         rx="13.881535"
         cy="575.57648"
         cx="366.78571"
         style="fill:#800000;fill-opacity:0.50222222;stroke:none"
         id="path6012"
         transform="matrix(-0.54641945,-0.41952492,-0.40625283,0.99292272,881.03412,-12.05221)" />
      <path
         sodipodi:nodetypes="czzscccc"
         inkscape:connector-curvature="0"
         id="path6014"
         d="m 375.25998,553.07497 c 0,0 2.2559,25.69012 -12.40284,58.57143 -14.65874,32.88131 -2.65351,45.5454 7.14285,42.14287 9.79636,-3.40253 12.47183,-10.39566 21.42858,-19.28572 11.33346,-11.24906 12.14285,-22.14287 12.14285,-22.14287 l 11.42858,17.14287 2.40283,49.53082 c 30.43102,13.93248 38.1995,-16.46961 29.53082,-47.38796"
         style="fill:none;stroke:#000000;stroke-width:3;stroke-linecap:butt;stroke-linejoin:miter;stroke-miterlimit:4;stroke-dasharray:none;stroke-opacity:1" />
      <path
         sodipodi:nodetypes="czcssszscczzcc"
         inkscape:connector-curvature="0"
         id="path6016"
         d="m 455,542.36069 c 0,0 49.76716,16.16665 62.14286,32.14286 12.3757,15.97621 12.9438,49.49492 12.9438,49.49492 4.579,-8.46174 5.95267,-7.5131 14.21443,-6.17346 3.07413,0.49847 6.86723,-4.43284 10.91546,3.48036 1.59236,3.11263 12.15747,8.67747 4.69768,12.74006 -3.59324,1.95689 4.53857,12.15501 -2.92366,15.54476 -7.46223,3.38976 -7.4325,3.99306 -10.83512,6.35851 -3.40262,2.36544 -7.24816,10.96804 -19.04849,-0.66524 l -8.53553,17.79151 c 0,0 -38.22972,13.12299 -53.06635,11.46447 -14.83663,-1.65852 -19.25312,-3.16196 -18.57143,-9.28571 0.6817,-6.12375 25.10547,-11.93367 30.16592,-14.69742 -6.64785,-0.006 -47.17718,-53.98416 3.88955,-52.4839"
         style="fill:none;stroke:#000000;stroke-width:3;stroke-linecap:butt;stroke-linejoin:miter;stroke-miterlimit:4;stroke-dasharray:none;stroke-opacity:1" />
      <path
         sodipodi:nodetypes="czzc"
         inkscape:connector-curvature="0"
         id="path6018"
         d="m 397.85714,627.06483 c 0,0 2.85853,14.54767 -7.84228,28.48476 -10.70081,13.93709 -21.77295,19.31142 -4.19905,23.78064 17.5739,4.46922 12.48952,-0.97533 31.29114,-2.64793"
         style="fill:none;stroke:#000000;stroke-width:3;stroke-linecap:butt;stroke-linejoin:miter;stroke-miterlimit:4;stroke-dasharray:none;stroke-opacity:1" />
      <path
         style="fill:none;stroke:#000000;stroke-width:1px;stroke-linecap:butt;stroke-linejoin:miter;stroke-opacity:1"
         d="m 360.83367,649.79101 c 0.10933,-4.16906 -0.24172,-8.68341 3.53554,-10.10152 l 0,0"
         id="path6020"
         inkscape:connector-curvature="0"
         sodipodi:nodetypes="ccc" />
      <path
         style="fill:none;stroke:#000000;stroke-width:1px;stroke-linecap:butt;stroke-linejoin:miter;stroke-opacity:1"
         d="m 461.63971,350.30616 c -1.58943,-3.36717 -0.16198,-6.73435 1.01016,-10.10152"
         id="path6022"
         inkscape:connector-curvature="0"
         transform="translate(-91.923877,302.03561)"
         sodipodi:nodetypes="cc" />
      <path
         style="fill:none;stroke:#000000;stroke-width:1px;stroke-linecap:butt;stroke-linejoin:miter;stroke-opacity:1"
         d="m 473.55233,376.24889 c -1.15016,-3.81606 1.76378,-9.8893 7.28028,-11.80059"
         id="path6024"
         inkscape:connector-curvature="0"
         transform="translate(-91.923877,302.03561)"
         sodipodi:nodetypes="cc" />
      <path
         style="fill:none;stroke:#000000;stroke-width:1px;stroke-linecap:butt;stroke-linejoin:miter;stroke-opacity:1"
         d="m 480.83261,378.08536 c -1.88878,-6.53443 3.6629,-8.10855 7.07107,-11.11168"
         id="path6026"
         inkscape:connector-curvature="0"
         transform="translate(-91.923877,302.03561)"
         sodipodi:nodetypes="cc" />
      <path
         style="fill:none;stroke:#000000;stroke-width:1px;stroke-linecap:butt;stroke-linejoin:miter;stroke-opacity:1"
         d="m 515.68287,369.49906 c -2.01632,1.72714 -3.20806,5.36803 -1.42857,9.00472"
         id="path6028"
         inkscape:connector-curvature="0"
         transform="translate(-91.923877,302.03561)"
         sodipodi:nodetypes="cc" />
      <path
         style="fill:none;stroke:#000000;stroke-width:1px;stroke-linecap:butt;stroke-linejoin:miter;stroke-opacity:1"
         d="m 521.74379,379.09551 c -2.78002,-3.36717 1.41049,-6.73435 2.02031,-10.10152"
         id="path6030"
         inkscape:connector-curvature="0"
         transform="translate(-91.923877,302.03561)"
         sodipodi:nodetypes="cc" />
      <path
         style="fill:none;stroke:#000000;stroke-width:1px;stroke-linecap:butt;stroke-linejoin:miter;stroke-opacity:1"
         d="m 544.55888,379.72314 c 0.76042,-2.28641 2.23965,-6.83396 8.49964,-8.20377"
         id="path6032"
         inkscape:connector-curvature="0"
         transform="translate(-91.923877,302.03561)"
         sodipodi:nodetypes="cc" />
      <path
         style="fill:none;stroke:#000000;stroke-width:1px;stroke-linecap:butt;stroke-linejoin:miter;stroke-opacity:1"
         d="m 554.66041,381.3863 c -3.86578,-3.29091 2.53908,-6.40263 6.98441,-7.84663"
         id="path6034"
         inkscape:connector-curvature="0"
         transform="translate(-91.923877,302.03561)"
         sodipodi:nodetypes="cc" />
      <path
         style="fill:none;stroke:#000000;stroke-width:1px;stroke-linecap:butt;stroke-linejoin:miter;stroke-opacity:1"
         d="m 630.84027,334.6488 c 0,0 4.85022,-8.37518 1.01015,-9.09137 -3.84008,-0.7162 -7.57615,5.05076 -7.57615,5.05076 l 0,0"
         id="path6036"
         inkscape:connector-curvature="0"
         transform="translate(-91.923877,302.03561)"
         sodipodi:nodetypes="czcc" />
      <path
         style="fill:none;stroke:#000000;stroke-width:1px;stroke-linecap:butt;stroke-linejoin:miter;stroke-opacity:1"
         d="m 623.7692,340.70971 c 0,0 -0.38204,5.1997 2.52538,6.06092 2.90741,0.86121 9.59645,-6.56599 9.59645,-6.56599"
         id="path6038"
         inkscape:connector-curvature="0"
         transform="translate(-91.923877,302.03561)"
         sodipodi:nodetypes="czc" />
      <path
         style="fill:none;stroke:#000000;stroke-width:1px;stroke-linecap:butt;stroke-linejoin:miter;stroke-opacity:1"
         d="m 638.92149,329.09296 c 3.40602,-3.72976 6.33246,-5.06163 7.07106,4.54569"
         id="path6040"
         inkscape:connector-curvature="0"
         transform="translate(-91.923877,302.03561)"
         sodipodi:nodetypes="cc" />
      <path
         style="fill:none;stroke:#000000;stroke-width:1px;stroke-linecap:butt;stroke-linejoin:miter;stroke-opacity:1"
         d="m 640.94179,346.26555 c 4.62747,-1.07131 7.25274,-3.0007 2.52538,-8.08122"
         id="path6042"
         inkscape:connector-curvature="0"
         transform="translate(-91.923877,302.03561)"
         sodipodi:nodetypes="cc" />
      <path
         sodipodi:nodetypes="cc"
         inkscape:connector-curvature="0"
         id="path6044"
         d="m 461.63971,350.30616 c -1.58943,-3.36717 -0.16198,-6.73435 1.01016,-10.10152"
         style="fill:none;stroke:#000000;stroke-width:1px;stroke-linecap:butt;stroke-linejoin:miter;stroke-opacity:1"
         transform="translate(-91.923877,302.03561)" />
      <path
         style="fill:#000000;fill-rule:evenodd;stroke:none"
         d="m 362.1615,526.37868 -2.53652,3.32138 28.32142,1.57617 z"
         id="path6046"
         inkscape:path-effect="#path-effect5904"
         inkscape:original-d="m 359.61432,529.10316 28.28426,-0.50507"
         inkscape:connector-curvature="0"
         sodipodi:nodetypes="cc" />
      <path
         inkscape:connector-curvature="0"
         inkscape:original-d="m 365.36886,540.83196 21.27447,-9.42313"
         inkscape:path-effect="#path-effect5904"
         id="path6048"
         d="m 366.23596,537.51833 -0.62533,3.85948 22.11748,-7.5199 z"
         style="fill:#000000;fill-rule:evenodd;stroke:none"
         sodipodi:nodetypes="cc" />
      <path
         sodipodi:nodetypes="cc"
         inkscape:connector-curvature="0"
         inkscape:original-d="m 445.50945,531.88171 -27.97576,4.19658"
         inkscape:path-effect="#path-effect5950"
         id="path6050"
         d="m 443.34011,534.91567 2.08078,-3.62435 -28.28456,2.13804 z"
         style="fill:#000000;fill-rule:evenodd;stroke:none" />
      <path
         sodipodi:nodetypes="cc"
         style="fill:#000000;fill-rule:evenodd;stroke:none"
         d="m 439.04996,546.46954 c 0,0 2.87934,-2.64499 2.87934,-2.64499 l -22.02802,-7.77802 c 6.38289,3.47434 12.76578,6.94867 19.14868,10.42301 z"
         id="path6052"
         inkscape:path-effect="#path-effect5952"
         inkscape:original-d="m 441.78148,544.40296 -22.54343,-5.76127"
         inkscape:connector-curvature="0" />
    </g>
  </g>
</svg>
