  0
SECTION
  2
HEADER
  9
$ACADVER
  1
AC1014
  9
$HANDSEED
  5
FFFF
  9
$MEASUREMENT
 70
     1
  0
ENDSEC
  0
SECTION
  2
TABLES
  0
TABLE
  2
VPORT
  5
8
330
0
100
AcDbSymbolTable
 70
     4
  0
VPORT
  5
2E
330
8
100
AcDbSymbolTableRecord
100
AcDbViewportTableRecord
  2
*ACTIVE
 70
     0
 10
0.0
 20
0.0
 11
1.0
 21
1.0
 12
210.0
 22
148.5
 13
0.0
 23
0.0
 14
10.0
 24
10.0
 15
10.0
 25
10.0
 16
0.0
 26
0.0
 36
1.0
 17
0.0
 27
0.0
 37
0.0
 40
341.0
 41
1.24
 42
50.0
 43
0.0
 44
0.0
 50
0.0
 51
0.0
 71
     0
 72
   100
 73
     1
 74
     3
 75
     0
 76
     0
 77
     0
 78
     0
  0
ENDTAB
  0
TABLE
  2
LTYPE
  5
5
330
0
100
AcDbSymbolTable
 70
     1
  0
LTYPE
  5
14
330
5
100
AcDbSymbolTableRecord
100
AcDbLinetypeTableRecord
  2
BYBLOCK
 70
     0
  3

 72
    65
 73
     0
 40
0.0
  0
LTYPE
  5
15
330
5
100
AcDbSymbolTableRecord
100
AcDbLinetypeTableRecord
  2
BYLAYER
 70
     0
  3

 72
    65
 73
     0
 40
0.0
  0
LTYPE
  5
16
330
5
100
AcDbSymbolTableRecord
100
AcDbLinetypeTableRecord
  2
CONTINUOUS
 70
     0
  3
Solid line
 72
    65
 73
     0
 40
0.0
  0
ENDTAB
  0
TABLE
  2
LAYER
  5
2
100
AcDbSymbolTable
 70
2
  0
LAYER
  5
50
100
AcDbSymbolTableRecord
100
AcDbLayerTableRecord
  2
0
 70
0
  6
CONTINUOUS
  0
LAYER
  5
51
100
AcDbSymbolTableRecord
100
AcDbLayerTableRecord
  2
Layer_1
 70
0
  6
CONTINUOUS
  0
ENDTAB
  0
TABLE
  2
STYLE
  5
3
330
0
100
AcDbSymbolTable
 70
     1
  0
STYLE
  5
11
330
3
100
AcDbSymbolTableRecord
100
AcDbTextStyleTableRecord
  2
STANDARD
 70
     0
 40
0.0
 41
1.0
 50
0.0
 71
     0
 42
2.5
  3
txt
  4

  0
ENDTAB
  0
TABLE
  2
VIEW
  5
6
330
0
100
AcDbSymbolTable
 70
     0
  0
ENDTAB
  0
TABLE
  2
UCS
  5
7
330
0
100
AcDbSymbolTable
 70
     0
  0
ENDTAB
  0
TABLE
  2
APPID
  5
9
330
0
100
AcDbSymbolTable
 70
     2
  0
APPID
  5
12
330
9
100
AcDbSymbolTableRecord
100
AcDbRegAppTableRecord
  2
ACAD
 70
     0
  0
ENDTAB
  0
TABLE
  2
DIMSTYLE
  5
A
330
0
100
AcDbSymbolTable
 70
     1
  0
DIMSTYLE
105
27
330
A
100
AcDbSymbolTableRecord
100
AcDbDimStyleTableRecord
  2
ISO-25
 70
     0
  3

  4

  5

  6

  7

 40
1.0
 41
2.5
 42
0.625
 43
3.75
 44
1.25
 45
0.0
 46
0.0
 47
0.0
 48
0.0
140
2.5
141
2.5
142
0.0
143
0.03937007874016
144
1.0
145
0.0
146
1.0
147
0.625
 71
     0
 72
     0
 73
     0
 74
     0
 75
     0
 76
     0
 77
     1
 78
     8
170
     0
171
     3
172
     1
173
     0
174
     0
175
     0
176
     0
177
     0
178
     0
270
     2
271
     2
272
     2
273
     2
274
     3
340
11
275
     0
280
     0
281
     0
282
     0
283
     0
284
     8
285
     0
286
     0
287
     3
288
     0
  0
ENDTAB
  0
TABLE
  2
BLOCK_RECORD
  5
1
330
0
100
AcDbSymbolTable
 70
     1
  0
BLOCK_RECORD
  5
1F
330
1
100
AcDbSymbolTableRecord
100
AcDbBlockTableRecord
  2
*MODEL_SPACE
  0
BLOCK_RECORD
  5
1B
330
1
100
AcDbSymbolTableRecord
100
AcDbBlockTableRecord
  2
*PAPER_SPACE
  0
ENDTAB
  0
ENDSEC
  0
SECTION
  2
BLOCKS
  0
BLOCK
  5
20
330
1F
100
AcDbEntity
  8
0
100
AcDbBlockBegin
  2
*MODEL_SPACE
 70
     0
 10
0.0
 20
0.0
 30
0.0
  3
*MODEL_SPACE
  1

  0
ENDBLK
  5
21
330
1F
100
AcDbEntity
  8
0
100
AcDbBlockEnd
  0
BLOCK
  5
1C
330
1B
100
AcDbEntity
 67
     1
  8
0
100
AcDbBlockBegin
  2
*PAPER_SPACE
  1

  0
ENDBLK
  5
1D
330
1B
100
AcDbEntity
 67
     1
  8
0
100
AcDbBlockEnd
  0
ENDSEC
  0
SECTION
  2
ENTITIES
  0
LWPOLYLINE
  5
100
100
AcDbEntity
  8
Layer_1
 62
7
100
AcDbPolyline
 90
268
 70
0
 10
0.062233
 20
1.138296
 30
0.0
 10
0.080853
 20
1.069114
 30
0.0
 10
0.099571
 20
0.999949
 30
0.0
 10
0.118648
 20
0.930891
 30
0.0
 10
0.138707
 20
0.862106
 30
0.0
 10
0.161396
 20
0.794179
 30
0.0
 10
0.192148
 20
0.729608
 30
0.0
 10
0.242893
 20
0.679912
 30
0.0
 10
0.306075
 20
0.646221
 30
0.0
 10
0.369722
 20
0.613923
 30
0.0
 10
0.432695
 20
0.580383
 30
0.0
 10
0.403746
 20
0.507542
 30
0.0
 10
0.375316
 20
0.442973
 30
0.0
 10
0.385969
 20
0.374606
 30
0.0
 10
0.421091
 20
0.313292
 30
0.0
 10
0.459412
 20
0.253884
 30
0.0
 10
0.532188
 20
0.145258
 30
0.0
 10
0.616041
 20
0.045366
 30
0.0
 10
0.739330
 20
0.020919
 30
0.0
 10
0.844378
 20
0.011149
 30
0.0
 10
0.960385
 20
0.006690
 30
0.0
 10
1.064043
 20
0.080614
 30
0.0
 10
1.115184
 20
0.126851
 30
0.0
 10
1.166325
 20
0.173088
 30
0.0
 10
1.164198
 20
0.250392
 30
0.0
 10
1.162071
 20
0.327695
 30
0.0
 10
1.158331
 20
0.412890
 30
0.0
 10
1.148494
 20
0.497387
 30
0.0
 10
1.231204
 20
0.523725
 30
0.0
 10
1.318674
 20
0.538637
 30
0.0
 10
1.390695
 20
0.550278
 30
0.0
 10
1.462250
 20
0.564558
 30
0.0
 10
1.533062
 20
0.582174
 30
0.0
 10
1.602688
 20
0.603931
 30
0.0
 10
1.670536
 20
0.630697
 30
0.0
 10
1.735820
 20
0.663253
 30
0.0
 10
1.797584
 20
0.702030
 30
0.0
 10
1.855033
 20
0.746963
 30
0.0
 10
1.907694
 20
0.797424
 30
0.0
 10
1.955592
 20
0.852465
 30
0.0
 10
1.999104
 20
0.911026
 30
0.0
 10
2.038847
 20
0.972210
 30
0.0
 10
2.075486
 20
1.035320
 30
0.0
 10
2.109614
 20
1.099811
 30
0.0
 10
2.142041
 20
1.165219
 30
0.0
 10
2.173456
 20
1.231146
 30
0.0
 10
2.204023
 20
1.297442
 30
0.0
 10
2.233774
 20
1.364137
 30
0.0
 10
2.262527
 20
1.431264
 30
0.0
 10
2.289662
 20
1.499044
 30
0.0
 10
2.324768
 20
1.590974
 30
0.0
 10
2.361579
 20
1.682183
 30
0.0
 10
2.466120
 20
1.606450
 30
0.0
 10
2.557361
 20
1.542229
 30
0.0
 10
2.658946
 20
1.496098
 30
0.0
 10
2.768390
 20
1.475899
 30
0.0
 10
2.840551
 20
1.488463
 30
0.0
 10
2.909446
 20
1.513952
 30
0.0
 10
2.976036
 20
1.545075
 30
0.0
 10
3.041018
 20
1.579389
 30
0.0
 10
3.104870
 20
1.615807
 30
0.0
 10
3.167847
 20
1.653714
 30
0.0
 10
3.230128
 20
1.692733
 30
0.0
 10
3.291859
 20
1.732632
 30
0.0
 10
3.390273
 20
1.796456
 30
0.0
 10
3.489379
 20
1.859190
 30
0.0
 10
3.590714
 20
1.917976
 30
0.0
 10
3.703901
 20
1.851284
 30
0.0
 10
3.771152
 20
1.807809
 30
0.0
 10
3.840431
 20
1.767649
 30
0.0
 10
3.911351
 20
1.730414
 30
0.0
 10
3.983570
 20
1.695826
 30
0.0
 10
4.056903
 20
1.663628
 30
0.0
 10
4.131162
 20
1.633640
 30
0.0
 10
4.206230
 20
1.605705
 30
0.0
 10
4.281986
 20
1.579708
 30
0.0
 10
4.358343
 20
1.555555
 30
0.0
 10
4.435242
 20
1.533169
 30
0.0
 10
4.512617
 20
1.512497
 30
0.0
 10
4.590418
 20
1.493500
 30
0.0
 10
4.668623
 20
1.476146
 30
0.0
 10
4.747161
 20
1.460432
 30
0.0
 10
4.826007
 20
1.446356
 30
0.0
 10
4.905130
 20
1.433928
 30
0.0
 10
4.984477
 20
1.423178
 30
0.0
 10
5.064059
 20
1.414135
 30
0.0
 10
5.143819
 20
1.406856
 30
0.0
 10
5.223724
 20
1.401403
 30
0.0
 10
5.303740
 20
1.397859
 30
0.0
 10
5.383823
 20
1.396322
 30
0.0
 10
5.454856
 20
1.396411
 30
0.0
 10
5.525883
 20
1.397768
 30
0.0
 10
5.596846
 20
1.400864
 30
0.0
 10
5.667678
 20
1.406418
 30
0.0
 10
5.738113
 20
1.415606
 30
0.0
 10
5.807556
 20
1.430516
 30
0.0
 10
5.874109
 20
1.455059
 30
0.0
 10
5.931761
 20
1.495935
 30
0.0
 10
5.967549
 20
1.556585
 30
0.0
 10
5.977310
 20
1.626682
 30
0.0
 10
5.964228
 20
1.700482
 30
0.0
 10
5.930844
 20
1.767820
 30
0.0
 10
5.885172
 20
1.827616
 30
0.0
 10
5.832115
 20
1.881017
 30
0.0
 10
5.774339
 20
1.929298
 30
0.0
 10
5.713325
 20
1.973469
 30
0.0
 10
5.650021
 20
2.014232
 30
0.0
 10
5.584953
 20
2.052163
 30
0.0
 10
5.518522
 20
2.087659
 30
0.0
 10
5.450994
 20
2.121036
 30
0.0
 10
5.382584
 20
2.152531
 30
0.0
 10
5.313432
 20
2.182345
 30
0.0
 10
5.243641
 20
2.210641
 30
0.0
 10
5.173303
 20
2.237548
 30
0.0
 10
5.102487
 20
2.263176
 30
0.0
 10
5.031228
 20
2.287624
 30
0.0
 10
4.911343
 20
2.325267
 30
0.0
 10
4.790473
 20
2.359554
 30
0.0
 10
4.668778
 20
2.390771
 30
0.0
 10
4.545959
 20
2.417288
 30
0.0
 10
4.467537
 20
2.431247
 30
0.0
 10
4.389154
 20
2.445428
 30
0.0
 10
4.311176
 20
2.461602
 30
0.0
 10
4.283854
 20
2.500813
 30
0.0
 10
4.357760
 20
2.530370
 30
0.0
 10
4.432783
 20
2.557138
 30
0.0
 10
4.508422
 20
2.585401
 30
0.0
 10
4.583334
 20
2.615564
 30
0.0
 10
4.657527
 20
2.647446
 30
0.0
 10
4.731027
 20
2.680909
 30
0.0
 10
4.803831
 20
2.715834
 30
0.0
 10
4.875970
 20
2.752144
 30
0.0
 10
4.947424
 20
2.789758
 30
0.0
 10
5.018197
 20
2.828631
 30
0.0
 10
5.088285
 20
2.868728
 30
0.0
 10
5.157666
 20
2.910028
 30
0.0
 10
5.226312
 20
2.952526
 30
0.0
 10
5.294198
 20
2.996239
 30
0.0
 10
5.361271
 20
3.041198
 30
0.0
 10
5.427455
 20
3.087448
 30
0.0
 10
5.492658
 20
3.135068
 30
0.0
 10
5.556753
 20
3.184176
 30
0.0
 10
5.619550
 20
3.234930
 30
0.0
 10
5.680784
 20
3.287571
 30
0.0
 10
5.740010
 20
3.342431
 30
0.0
 10
5.796550
 20
3.400079
 30
0.0
 10
5.849051
 20
3.461393
 30
0.0
 10
5.894540
 20
3.528029
 30
0.0
 10
5.923825
 20
3.602866
 30
0.0
 10
5.903368
 20
3.677627
 30
0.0
 10
5.841363
 20
3.710374
 30
0.0
 10
5.772650
 20
3.726856
 30
0.0
 10
5.702571
 20
3.736302
 30
0.0
 10
5.632026
 20
3.741362
 30
0.0
 10
5.561336
 20
3.743176
 30
0.0
 10
5.490617
 20
3.742334
 30
0.0
 10
5.419964
 20
3.739164
 30
0.0
 10
5.349451
 20
3.733854
 30
0.0
 10
5.270714
 20
3.726101
 30
0.0
 10
5.192113
 20
3.717011
 30
0.0
 10
5.113674
 20
3.706551
 30
0.0
 10
5.035461
 20
3.694687
 30
0.0
 10
4.957475
 20
3.681373
 30
0.0
 10
4.879753
 20
3.666562
 30
0.0
 10
4.802340
 20
3.650201
 30
0.0
 10
4.725267
 20
3.632228
 30
0.0
 10
4.648632
 20
3.612585
 30
0.0
 10
4.572459
 20
3.591190
 30
0.0
 10
4.496814
 20
3.567955
 30
0.0
 10
4.421815
 20
3.542796
 30
0.0
 10
4.347507
 20
3.515589
 30
0.0
 10
4.274043
 20
3.486223
 30
0.0
 10
4.201542
 20
3.454555
 30
0.0
 10
4.130165
 20
3.420426
 30
0.0
 10
4.060106
 20
3.383654
 30
0.0
 10
3.991624
 20
3.344045
 30
0.0
 10
3.925001
 20
3.301363
 30
0.0
 10
3.860621
 20
3.255362
 30
0.0
 10
3.798968
 20
3.205784
 30
0.0
 10
3.740627
 20
3.152349
 30
0.0
 10
3.662810
 20
3.075909
 30
0.0
 10
3.584994
 20
2.999470
 30
0.0
 10
3.522673
 20
3.061734
 30
0.0
 10
3.460353
 20
3.123998
 30
0.0
 10
3.410869
 20
3.171516
 30
0.0
 10
3.359738
 20
3.217232
 30
0.0
 10
3.307188
 20
3.261313
 30
0.0
 10
3.253360
 20
3.303816
 30
0.0
 10
3.198306
 20
3.344733
 30
0.0
 10
3.142025
 20
3.383947
 30
0.0
 10
3.084430
 20
3.421226
 30
0.0
 10
3.025373
 20
3.456090
 30
0.0
 10
2.964464
 20
3.487634
 30
0.0
 10
2.901025
 20
3.513618
 30
0.0
 10
2.836405
 20
3.530897
 30
0.0
 10
2.770072
 20
3.539416
 30
0.0
 10
2.703232
 20
3.538000
 30
0.0
 10
2.637344
 20
3.526604
 30
0.0
 10
2.573603
 20
3.506342
 30
0.0
 10
2.512593
 20
3.478926
 30
0.0
 10
2.448571
 20
3.436076
 30
0.0
 10
2.389544
 20
3.386422
 30
0.0
 10
2.333439
 20
3.333469
 30
0.0
 10
2.279951
 20
3.277887
 30
0.0
 10
2.229686
 20
3.219347
 30
0.0
 10
2.185990
 20
3.155881
 30
0.0
 10
2.124707
 20
3.110071
 30
0.0
 10
2.045232
 20
3.104956
 30
0.0
 10
1.968255
 20
3.108012
 30
0.0
 10
1.891642
 20
3.116190
 30
0.0
 10
1.815555
 20
3.128366
 30
0.0
 10
1.740061
 20
3.143754
 30
0.0
 10
1.665139
 20
3.161790
 30
0.0
 10
1.590785
 20
3.182052
 30
0.0
 10
1.516992
 20
3.204213
 30
0.0
 10
1.443697
 20
3.228030
 30
0.0
 10
1.370895
 20
3.253298
 30
0.0
 10
1.298551
 20
3.279857
 30
0.0
 10
1.229242
 20
3.305141
 30
0.0
 10
1.159392
 20
3.328814
 30
0.0
 10
1.088910
 20
3.350555
 30
0.0
 10
1.017737
 20
3.369914
 30
0.0
 10
0.945800
 20
3.386261
 30
0.0
 10
0.873110
 20
3.398663
 30
0.0
 10
0.799700
 20
3.405708
 30
0.0
 10
0.725978
 20
3.405103
 30
0.0
 10
0.653327
 20
3.393088
 30
0.0
 10
0.585781
 20
3.364108
 30
0.0
 10
0.527886
 20
3.313826
 30
0.0
 10
0.495778
 20
3.244649
 30
0.0
 10
0.498651
 20
3.168222
 30
0.0
 10
0.525927
 20
3.096357
 30
0.0
 10
0.566303
 20
3.030823
 30
0.0
 10
0.614105
 20
2.970440
 30
0.0
 10
0.666566
 20
2.914060
 30
0.0
 10
0.722231
 20
2.860816
 30
0.0
 10
0.805943
 20
2.783605
 30
0.0
 10
0.787208
 20
2.744069
 30
0.0
 10
0.716430
 20
2.762331
 30
0.0
 10
0.648494
 20
2.789315
 30
0.0
 10
0.584399
 20
2.824462
 30
0.0
 10
0.523543
 20
2.865027
 30
0.0
 10
0.464859
 20
2.908637
 30
0.0
 10
0.407444
 20
2.953946
 30
0.0
 10
0.315805
 20
3.023574
 30
0.0
 10
0.217098
 20
3.081682
 30
0.0
 10
0.130125
 20
3.016783
 30
0.0
 10
0.087275
 20
2.912405
 30
0.0
 10
0.064873
 20
2.792908
 30
0.0
 10
0.066668
 20
2.671420
 30
0.0
 10
0.089800
 20
2.551987
 30
0.0
 10
0.106821
 20
2.457108
 30
0.0
 10
0.080079
 20
2.365467
 30
0.0
 10
0.045337
 20
2.243876
 30
0.0
 10
0.042629
 20
2.117098
 30
0.0
 10
0.073798
 20
1.994673
 30
0.0
 10
0.077702
 20
1.895000
 30
0.0
 10
0.038478
 20
1.829043
 30
0.0
 10
0.019928
 20
1.753777
 30
0.0
 10
0.010462
 20
1.676775
 30
0.0
 10
0.006690
 20
1.599251
 30
0.0
 10
0.007219
 20
1.521636
 30
0.0
 10
0.011398
 20
1.444150
 30
0.0
 10
0.018943
 20
1.366903
 30
0.0
 10
0.029803
 20
1.290063
 30
0.0
 10
0.044122
 20
1.213771
 30
0.0
 10
0.062233
 20
1.138303
 30
0.0
 10
0.062233
 20
1.138303
 30
0.0
  0
ENDSEC
  0
SECTION
  2
OBJECTS
  0
DICTIONARY
  5
C
330
0
100
AcDbDictionary
  3
ACAD_GROUP
350
D
  3
ACAD_MLINESTYLE
350
17
  0
DICTIONARY
  5
D
330
C
100
AcDbDictionary
  0
DICTIONARY
  5
1A
330
C
100
AcDbDictionary
  0
DICTIONARY
  5
17
330
C
100
AcDbDictionary
  3
STANDARD
350
18
  0
DICTIONARY
  5
19
330
C
100
AcDbDictionary
  0
ENDSEC
  0
EOF
