  0
SECTION
  2
HEADER
  9
$ACADVER
  1
AC1009
  9
$DWGCODEPAGE
  3
ansi_1252
  9
$INSBASE
 10
0.0
 20
0.0
 30
0.0
  9
$EXTMIN
 10
1.000000000000000E+20
 20
1.000000000000000E+20
 30
1.000000000000000E+20
  9
$EXTMAX
 10
-1.000000000000000E+20
 20
-1.000000000000000E+20
 30
-1.000000000000000E+20
  9
$LIMMIN
 10
0.0
 20
0.0
  9
$LIMMAX
 10
12.0
 20
9.0
  9
$ORTHOMODE
 70
     0
  9
$REGENMODE
 70
     1
  9
$FILLMODE
 70
     1
  9
$QTEXTMODE
 70
     0
  9
$MIRRTEXT
 70
     1
  9
$DRAGMODE
 70
     2
  9
$LTSCALE
 40
1.0
  9
$OSMODE
 70
    37
  9
$ATTMODE
 70
     1
  9
$TEXTSIZE
 40
2.5
  9
$TRACEWID
 40
0.05
  9
$TEXTSTYLE
  7
STANDARD
  9
$CLAYER
  8
0
  9
$CELTYPE
  6
BYLAYER
  9
$CECOLOR
 62
    18
  9
$DIMSCALE
 40
1.0
  9
$DIMASZ
 40
0.18
  9
$DIMEXO
 40
0.0625
  9
$DIMDLI
 40
0.38
  9
$DIMRND
 40
0.0
  9
$DIMDLE
 40
0.0
  9
$DIMEXE
 40
0.18
  9
$DIMTP
 40
0.0
  9
$DIMTM
 40
0.0
  9
$DIMTXT
 40
0.18
  9
$DIMCEN
 40
0.09
  9
$DIMTSZ
 40
0.0
  9
$DIMTOL
 70
     0
  9
$DIMLIM
 70
     0
  9
$DIMTIH
 70
     1
  9
$DIMTOH
 70
     1
  9
$DIMSE1
 70
     0
  9
$DIMSE2
 70
     0
  9
$DIMTAD
 70
     0
  9
$DIMZIN
 70
     0
  9
$DIMBLK
  1

  9
$DIMASO
 70
     1
  9
$DIMSHO
 70
     1
  9
$DIMPOST
  1

  9
$DIMAPOST
  1

  9
$DIMALT
 70
     0
  9
$DIMALTD
 70
     2
  9
$DIMALTF
 40
25.4
  9
$DIMLFAC
 40
1.0
  9
$DIMTOFL
 70
     0
  9
$DIMTVP
 40
0.0
  9
$DIMTIX
 70
     0
  9
$DIMSOXD
 70
     0
  9
$DIMSAH
 70
     0
  9
$DIMBLK1
  1

  9
$DIMBLK2
  1

  9
$DIMSTYLE
  2
STANDARD
  9
$DIMCLRD
 70
    18
  9
$DIMCLRE
 70
    18
  9
$DIMCLRT
 70
    18
  9
$DIMTFAC
 40
1.0
  9
$DIMGAP
 40
0.09
  9
$LUNITS
 70
     2
  9
$LUPREC
 70
     4
  9
$SKETCHINC
 40
0.1
  9
$FILLETRAD
 40
0.5
  9
$AUNITS
 70
     0
  9
$AUPREC
 70
     0
  9
$MENU
  1
.
  9
$ELEVATION
 40
0.0
  9
$PELEVATION
 40
0.0
  9
$THICKNESS
 40
0.0
  9
$LIMCHECK
 70
     0
  9
$CHAMFERA
 40
0.0
  9
$CHAMFERB
 40
0.0
  9
$SKPOLY
 70
     0
  9
$TDCREATE
 40
2457740.735720347
  9
$TDUPDATE
 40
2457740.73572037
  9
$TDINDWG
 40
0.0000000116
  9
$TDUSRTIMER
 40
0.0000000116
  9
$USRTIMER
 70
     1
  9
$ANGBASE
 50
0.0
  9
$ANGDIR
 70
     0
  9
$PDMODE
 70
     0
  9
$PDSIZE
 40
0.0
  9
$PLINEWID
 40
0.0
  9
$COORDS
 70
     1
  9
$SPLFRAME
 70
     0
  9
$SPLINETYPE
 70
     6
  9
$SPLINESEGS
 70
     8
  9
$ATTDIA
 70
     0
  9
$ATTREQ
 70
     1
  9
$HANDLING
 70
     1
  9
$HANDSEED
  5
10220
  9
$SURFTAB1
 70
     6
  9
$SURFTAB2
 70
     6
  9
$SURFTYPE
 70
     6
  9
$SURFU
 70
     6
  9
$SURFV
 70
     6
  9
$UCSNAME
  2

  9
$UCSORG
 10
0.0
 20
0.0
 30
0.0
  9
$UCSXDIR
 10
1.0
 20
0.0
 30
0.0
  9
$UCSYDIR
 10
0.0
 20
1.0
 30
0.0
  9
$PUCSNAME
  2

  9
$PUCSORG
 10
0.0
 20
0.0
 30
0.0
  9
$PUCSXDIR
 10
1.0
 20
0.0
 30
0.0
  9
$PUCSYDIR
 10
0.0
 20
1.0
 30
0.0
  9
$USERI1
 70
     0
  9
$USERI2
 70
     0
  9
$USERI3
 70
     0
  9
$USERI4
 70
     0
  9
$USERI5
 70
     0
  9
$USERR1
 40
0.0
  9
$USERR2
 40
0.0
  9
$USERR3
 40
0.0
  9
$USERR4
 40
0.0
  9
$USERR5
 40
0.0
  9
$WORLDVIEW
 70
     1
  9
$SHADEDGE
 70
     3
  9
$SHADEDIF
 70
    70
  9
$TILEMODE
 70
     1
  9
$MAXACTVP
 70
     2
  9
$PLIMCHECK
 70
     0
  9
$PEXTMIN
 10
1.000000000000000E+20
 20
1.000000000000000E+20
 30
1.000000000000000E+20
  9
$PEXTMAX
 10
-1.000000000000000E+20
 20
-1.000000000000000E+20
 30
-1.000000000000000E+20
  9
$PLIMMIN
 10
-20.0
 20
-7.5
  9
$PLIMMAX
 10
277.0
 20
202.5
  9
$UNITMODE
 70
     0
  9
$VISRETAIN
 70
     1
  9
$PLINEGEN
 70
     0
  9
$PSLTSCALE
 70
     1
  0
ENDSEC
  0
SECTION
  2
TABLES
  0
TABLE
  2
VPORT
 70
     1
  0
VPORT
  2
*ACTIVE
 70
     0
 10
0.0
 20
0.0
 11
1.0
 21
1.0
 12
2.991999999999999
 22
1.874933
 13
0.0
 23
0.0
 14
0.5
 24
0.5
 15
0.5
 25
0.5
 16
0.0
 26
0.0
 36
1.0
 17
0.0
 27
0.0
 37
0.0
 40
3.99276075994513
 41
2.092426187419769
 42
50.0
 43
0.0
 44
0.0
 50
0.0
 51
0.0
 71
     0
 72
   100
 73
     1
 74
     3
 75
     0
 76
     0
 77
     0
 78
     0
  0
ENDTAB
  0
TABLE
  2
LTYPE
 70
    52
  0
LTYPE
  2
CONTINUOUS
 70
     0
  3
Solid line
 72
    65
 73
     0
 40
0.0
  0
LTYPE
  2
BORDER
 70
     0
  3
Border __ __ . __ __ . __ __ . __ __ . __ __ .
 72
    65
 73
     6
 40
44.45
 49
12.7
 49
-6.35
 49
12.7
 49
-6.35
 49
0.0
 49
-6.35
  0
LTYPE
  2
BATTING
 70
     0
  3
Batting SSSSSSSSSSSSSSSSSSSSSSSSSSSSSSSSSSSSSSSSSSSSSSS
 72
    65
 73
     4
 40
10.16254
 49
0.00254
 49
-2.54
 49
-5.08
 49
-2.54
  0
LTYPE
  2
DIVIDEX2
 70
     0
  3
Divide (2x) ________  .  .  ________  .  .  _
 72
    65
 73
     6
 40
63.5
 49
25.4
 49
-12.7
 49
0.0
 49
-12.7
 49
0.0
 49
-12.7
  0
LTYPE
  2
DIVIDE2
 70
     0
  3
Divide (.5x) __..__..__..__..__..__..__..__.._
 72
    65
 73
     6
 40
15.875
 49
6.35
 49
-3.175
 49
0.0
 49
-3.175
 49
0.0
 49
-3.175
  0
LTYPE
  2
DOT2
 70
     0
  3
Dot (.5x) ........................................
 72
    65
 73
     2
 40
3.175
 49
0.0
 49
-3.175
  0
LTYPE
  2
DOT
 70
     0
  3
Dot . . . . . . . . . . . . . . . . . . . . . . . .
 72
    65
 73
     2
 40
6.35
 49
0.0
 49
-6.35
  0
LTYPE
  2
DRAINAGE
 70
     0
  3
Drainage ---->---->---->----
 72
    65
 73
     2
 40
10.16
 49
5.08
 49
5.08
  0
LTYPE
  2
DOTX2
 70
     0
  3
Dot (2x) .  .  .  .  .  .  .  .  .  .  .  .  .  .
 72
    65
 73
     2
 40
12.7
 49
0.0
 49
-12.7
  0
LTYPE
  2
FENCELINE1
 70
     0
  3
Fenceline circle ----0-----0----0-----0----0-----0--
 72
    65
 73
     4
 40
36.83
 49
6.35
 49
-2.54
 49
-2.54
 49
25.4
  0
LTYPE
  2
DRAINAGE2
 70
     0
  3
Drainage reversed----<----<----<----
 72
    65
 73
     2
 40
10.16
 49
5.08
 49
5.08
  0
LTYPE
  2
DASHDOT
 70
     0
  3
Dash dot __ . __ . __ . __ . __ . __ . __ . __
 72
    65
 73
     4
 40
25.4
 49
12.7
 49
-6.35
 49
0.0
 49
-6.35
  0
LTYPE
  2
CUTRIGHT2
 70
     0
  3
G42 reversed----\----\----\----
 72
    65
 73
     2
 40
10.16
 49
5.08
 49
5.08
  0
LTYPE
  2
DASHDOTX2
 70
     0
  3
Dash dot (2x) ____  .  ____  .  ____  .  ___
 72
    65
 73
     4
 40
50.8
 49
25.4
 49
-12.7
 49
0.0
 49
-12.7
  0
LTYPE
  2
DASHDOT2
 70
     0
  3
Dash dot (.5x) _._._._._._._._._._._._._._._.
 72
    65
 73
     4
 40
12.7
 49
6.35
 49
-3.175
 49
0.0
 49
-3.175
  0
LTYPE
  2
DASHED2
 70
     0
  3
Dashed (.5x) _ _ _ _ _ _ _ _ _ _ _ _ _ _ _ _ _ 
 72
    65
 73
     2
 40
9.524999999999999
 49
6.35
 49
-3.175
  0
LTYPE
  2
DASHED
 70
     0
  3
Dashed __ __ __ __ __ __ __ __ __ __ __ __ __ _
 72
    65
 73
     2
 40
19.05
 49
12.7
 49
-6.35
  0
LTYPE
  2
DIVIDE
 70
     0
  3
Divide ____ . . ____ . . ____ . . ____ . . ____
 72
    65
 73
     6
 40
31.75
 49
12.7
 49
-6.35
 49
0.0
 49
-6.35
 49
0.0
 49
-6.35
  0
LTYPE
  2
DASHEDX2
 70
     0
  3
Dashed (2x) ____  ____  ____  ____  ____  ___
 72
    65
 73
     2
 40
38.09999999999999
 49
25.4
 49
-12.7
  0
LTYPE
  2
TRACKS
 70
     0
  3
Tracks -|-|-|-|-|-|-|-|-|-|-|-|-|-|-|-|-|-|-|-|-|-|-|-|-
 72
    65
 73
     2
 40
7.62
 49
3.81
 49
3.81
  0
LTYPE
  2
PHANTOMX2
 70
     0
  3
Phantom (2x) ____________    ____    ____   _
 72
    65
 73
     6
 40
127.0
 49
63.5
 49
-12.7
 49
12.7
 49
-12.7
 49
12.7
 49
-12.7
  0
LTYPE
  2
ZIGZAG
 70
     0
  3
Zig zag /\/\/\/\/\/\/\/\/\/\/\/\/\/\/\/\/\/\/\/\/\/\/\/
 72
    65
 73
     4
 40
20.32254
 49
0.00254
 49
-5.08
 49
-10.16
 49
-5.08
  0
LTYPE
  2
GAS_LINE
 70
     0
  3
Gas line ----GAS----GAS----GAS----GAS----GAS----GAS--
 72
    65
 73
     3
 40
24.13
 49
12.7
 49
-5.08
 49
-6.35
  0
LTYPE
  2
FENCELINE2
 70
     0
  3
Fenceline square ----[]-----[]----[]-----[]----[]---
 72
    65
 73
     4
 40
36.83
 49
6.35
 49
-2.54
 49
-2.54
 49
25.4
  0
LTYPE
  2
HIDDEN2
 70
     0
  3
Hidden (.5x) _ _ _ _ _ _ _ _ _ _ _ _ _ _ _ _ _ 
 72
    65
 73
     2
 40
4.762499999999999
 49
3.175
 49
-1.5875
  0
LTYPE
  2
HIDDEN
 70
     0
  3
Hidden __ __ __ __ __ __ __ __ __ __ __ __ __ __
 72
    65
 73
     2
 40
9.524999999999999
 49
6.35
 49
-3.175
  0
LTYPE
  2
HOT_WATER_SUPPLY
 70
     0
  3
Hot water supply ---- HW ---- HW ---- HW ----
 72
    65
 73
     3
 40
22.86
 49
12.7
 49
-5.08
 49
-5.08
  0
LTYPE
  2
HIDDENX2
 70
     0
  3
Hidden (2x) ____ ____ ____ ____ ____ ____ ____ 
 72
    65
 73
     2
 40
19.05
 49
12.7
 49
-6.35
  0
LTYPE
  2
PHANTOM2
 70
     0
  3
Phantom (.5x) ___ _ _ ___ _ _ ___ _ _ ___ _ _
 72
    65
 73
     6
 40
31.75
 49
15.875
 49
-3.175
 49
3.175
 49
-3.175
 49
3.175
 49
-3.175
  0
LTYPE
  2
PHANTOM
 70
     0
  3
Phantom ______  __  __  ______  __  __  ______ 
 72
    65
 73
     6
 40
63.50000000000001
 49
31.75
 49
-6.35
 49
6.35
 49
-6.35
 49
6.35
 49
-6.35
  0
LTYPE
  2
ACAD_ISO03W100
 70
     0
  3
ISO dash space __    __    __    __    __    __
 72
    65
 73
     2
 40
30.0
 49
12.0
 49
-18.0
  0
LTYPE
  2
ACAD_ISO02W100
 70
     0
  3
ISO dash __ __ __ __ __ __ __ __ __ __ __ __ __
 72
    65
 73
     2
 40
15.0
 49
12.0
 49
-3.0
  0
LTYPE
  2
ACAD_ISO05W100
 70
     0
  3
ISO long-dash double-dot ____ .. ____ .. ____ . 
 72
    65
 73
     6
 40
33.0
 49
24.0
 49
-3.0
 49
0.0
 49
-3.0
 49
0.0
 49
-3.0
  0
LTYPE
  2
ACAD_ISO04W100
 70
     0
  3
ISO long-dash dot ____ . ____ . ____ . ____ . _
 72
    65
 73
     4
 40
30.0
 49
24.0
 49
-3.0
 49
0.0
 49
-3.0
  0
LTYPE
  2
ACAD_ISO07W100
 70
     0
  3
ISO dot . . . . . . . . . . . . . . . . . . . . 
 72
    65
 73
     2
 40
3.0
 49
0.0
 49
-3.0
  0
LTYPE
  2
ACAD_ISO06W100
 70
     0
  3
ISO long-dash triple-dot ____ ... ____ ... ____
 72
    65
 73
     8
 40
36.0
 49
24.0
 49
-3.0
 49
0.0
 49
-3.0
 49
0.0
 49
-3.0
 49
0.0
 49
-3.0
  0
LTYPE
  2
ACAD_ISO09W100
 70
     0
  3
ISO long-dash double-short-dash ____ __ __ ____
 72
    65
 73
     6
 40
45.0
 49
24.0
 49
-3.0
 49
6.0
 49
-3.0
 49
6.0
 49
-3.0
  0
LTYPE
  2
ACAD_ISO08W100
 70
     0
  3
ISO long-dash short-dash ____ __ ____ __ ____ _
 72
    65
 73
     4
 40
36.0
 49
24.0
 49
-3.0
 49
6.0
 49
-3.0
  0
LTYPE
  2
BORDERX2
 70
     0
  3
Border (2x) ____  ____  .  ____  ____  .  ___
 72
    65
 73
     6
 40
88.89999999999999
 49
25.4
 49
-12.7
 49
25.4
 49
-12.7
 49
0.0
 49
-12.7
  0
LTYPE
  2
BORDER2
 70
     0
  3
Border (.5x) __.__.__.__.__.__.__.__.__.__.__.
 72
    65
 73
     6
 40
22.225
 49
6.35
 49
-3.175
 49
6.35
 49
-3.175
 49
0.0
 49
-3.175
  0
LTYPE
  2
CENTER2
 70
     0
  3
Center (.5x) ___ _ ___ _ ___ _ ___ _ ___ _ ___
 72
    65
 73
     4
 40
28.575
 49
19.05
 49
-3.175
 49
3.175
 49
-3.175
  0
LTYPE
  2
CENTER
 70
     0
  3
Center ____ _ ____ _ ____ _ ____ _ ____ _ ____
 72
    65
 73
     4
 40
50.8
 49
31.75
 49
-6.35
 49
6.35
 49
-6.35
  0
LTYPE
  2
CUTLEFT
 70
     0
  3
G41 ----\----\----\----
 72
    65
 73
     2
 40
10.16
 49
5.08
 49
5.08
  0
LTYPE
  2
CENTERX2
 70
     0
  3
Center (2x) ________  __  ________  __  _____
 72
    65
 73
     4
 40
101.6
 49
63.5
 49
-12.7
 49
12.7
 49
-12.7
  0
LTYPE
  2
CUTRIGHT
 70
     0
  3
G42 ----/----/-----/---
 72
    65
 73
     2
 40
10.16
 49
5.08
 49
5.08
  0
LTYPE
  2
CUTLEFT2
 70
     0
  3
G41 reversed----/----/----/----
 72
    65
 73
     2
 40
10.16
 49
5.08
 49
5.08
  0
LTYPE
  2
ACAD_ISO11W100
 70
     0
  3
ISO double-dash dot __ __ . __ __ . __ __ . __ _
 72
    65
 73
     6
 40
33.0
 49
12.0
 49
-3.0
 49
12.0
 49
-3.0
 49
0.0
 49
-3.0
  0
LTYPE
  2
ACAD_ISO10W100
 70
     0
  3
ISO dash dot __ . __ . __ . __ . __ . __ . __ . 
 72
    65
 73
     4
 40
18.0
 49
12.0
 49
-3.0
 49
0.0
 49
-3.0
  0
LTYPE
  2
ACAD_ISO13W100
 70
     0
  3
ISO double-dash double-dot __ __ . . __ __ . . _
 72
    65
 73
     8
 40
36.0
 49
12.0
 49
-3.0
 49
12.0
 49
-3.0
 49
0.0
 49
-3.0
 49
0.0
 49
-3.0
  0
LTYPE
  2
ACAD_ISO12W100
 70
     0
  3
ISO dash double-dot __ . . __ . . __ . . __ . . 
 72
    65
 73
     6
 40
21.0
 49
12.0
 49
-3.0
 49
0.0
 49
-3.0
 49
0.0
 49
-3.0
  0
LTYPE
  2
ACAD_ISO15W100
 70
     0
  3
ISO double-dash triple-dot __ __ . . . __ __ . .
 72
    65
 73
    10
 40
39.0
 49
12.0
 49
-3.0
 49
12.0
 49
-3.0
 49
0.0
 49
-3.0
 49
0.0
 49
-3.0
 49
0.0
 49
-3.0
  0
LTYPE
  2
ACAD_ISO14W100
 70
     0
  3
ISO dash triple-dot __ . . . __ . . . __ . . . _
 72
    65
 73
     8
 40
24.0
 49
12.0
 49
-3.0
 49
0.0
 49
-3.0
 49
0.0
 49
-3.0
 49
0.0
 49
-3.0
  0
ENDTAB
  0
TABLE
  2
LAYER
 70
     2
  0
LAYER
  2
0
 70
     0
 62
     7
  6
CONTINUOUS
  0
LAYER
  2
LAYER_1
 70
     0
 62
     7
  6
CONTINUOUS
  0
ENDTAB
  0
TABLE
  2
STYLE
 70
    17
  0
STYLE
  2
STANDARD
 70
     0
 40
0.0
 41
1.0
 50
0.0
 71
     0
 42
2.5
  3
txt
  4

  0
STYLE
  2
QCADDIMTEXTSTYLE
 70
     0
 40
0.0
 41
1.0
 50
0.0
 71
     0
 42
2.5
  3

  4

  0
STYLE
  2
TEXTSTYLE0
 70
     0
 40
0.0
 41
1.0
 50
0.0
 71
     0
 42
2.5
  3
ltypeshp.shx
  4

  0
STYLE
  2
TEXTSTYLE1
 70
     0
 40
0.0
 41
1.0
 50
0.0
 71
     0
 42
2.5
  3
ltypeshp.shx
  4

  0
STYLE
  2
TEXTSTYLE2
 70
     0
 40
0.0
 41
1.0
 50
0.0
 71
     0
 42
2.5
  3
qcadshp.shx
  4

  0
STYLE
  2
TEXTSTYLE3
 70
     0
 40
0.0
 41
1.0
 50
0.0
 71
     0
 42
2.5
  3
ltypeshp.shx
  4

  0
STYLE
  2
TEXTSTYLE4
 70
     0
 40
0.0
 41
1.0
 50
0.0
 71
     0
 42
2.5
  3
qcadshp.shx
  4

  0
STYLE
  2
TEXTSTYLE5
 70
     0
 40
0.0
 41
1.0
 50
0.0
 71
     0
 42
2.5
  3
qcadshp.shx
  4

  0
STYLE
  2
TEXTSTYLE6
 70
     0
 40
0.0
 41
1.0
 50
0.0
 71
     0
 42
2.5
  3
ltypeshp.shx
  4

  0
STYLE
  2
TEXTSTYLE7
 70
     0
 40
0.0
 41
1.0
 50
0.0
 71
     0
 42
2.5
  3
ltypeshp.shx
  4

  0
STYLE
  2
TEXTSTYLE8
 70
     0
 40
0.0
 41
1.0
 50
0.0
 71
     0
 42
2.5
  3
ltypeshp.shx
  4

  0
STYLE
  2
TEXTSTYLE9
 70
     0
 40
0.0
 41
1.0
 50
0.0
 71
     0
 42
2.5
  3
STANDARD
  4

  0
STYLE
  2
TEXTSTYLE10
 70
     0
 40
0.0
 41
1.0
 50
0.0
 71
     0
 42
2.5
  3
ltypeshp.shx
  4

  0
STYLE
  2
TEXTSTYLE11
 70
     0
 40
0.0
 41
1.0
 50
0.0
 71
     0
 42
2.5
  3
STANDARD
  4

  0
STYLE
  2
TEXTSTYLE12
 70
     0
 40
0.0
 41
1.0
 50
0.0
 71
     0
 42
2.5
  3
qcadshp.shx
  4

  0
STYLE
  2
TEXTSTYLE13
 70
     0
 40
0.0
 41
1.0
 50
0.0
 71
     0
 42
2.5
  3
qcadshp.shx
  4

  0
STYLE
  2
TEXTSTYLE14
 70
     0
 40
0.0
 41
1.0
 50
0.0
 71
     0
 42
2.5
  3
qcadshp.shx
  4

  0
ENDTAB
  0
TABLE
  2
VIEW
 70
     0
  0
ENDTAB
  0
TABLE
  2
UCS
 70
     0
  0
ENDTAB
  0
TABLE
  2
APPID
 70
     2
  0
APPID
  2
ACAD
 70
     0
  0
APPID
  2
QCAD
 70
     0
  0
ENDTAB
  0
TABLE
  2
DIMSTYLE
 70
     2
  0
DIMSTYLE
  2
STANDARD
 70
     0
  3

  4

  5

  6

  7

 40
1.0
 41
0.18
 42
0.0625
 43
0.38
 44
0.18
 45
0.0
 46
0.0
 47
0.0
 48
0.0
140
0.18
141
0.09
142
0.0
143
25.4
144
1.0
145
0.0
146
1.0
147
0.09
 71
     0
 72
     0
 73
     1
 74
     1
 75
     0
 76
     0
 77
     0
 78
     0
170
     0
171
     2
172
     0
173
     0
174
     0
175
     0
176
     0
177
     0
178
     0
  0
DIMSTYLE
  2
QCADDIMSTYLE
 70
     0
  3

  4

  5

  6

  7

 40
1.0
 41
0.18
 42
0.0625
 43
0.38
 44
0.18
 45
0.0
 46
0.0
 47
0.0
 48
0.0
140
0.18
141
0.09
142
0.0
143
25.4
144
1.0
145
0.0
146
1.0
147
0.09
 71
     0
 72
     0
 73
     0
 74
     1
 75
     0
 76
     0
 77
     1
 78
     0
170
     0
171
     2
172
     0
173
     0
174
     0
175
     0
176
     0
177
     0
178
     0
  0
ENDTAB
  0
ENDSEC
  0
SECTION
  2
BLOCKS
  0
BLOCK
  8
0
  2
$MODEL_SPACE
 70
     0
 10
0.0
 20
0.0
 30
0.0
  3
$MODEL_SPACE
  1

  0
ENDBLK
  5
10043
  8
0
  0
BLOCK
 67
     1
  8
0
  2
$PAPER_SPACE
 70
     0
 10
0.0
 20
0.0
 30
0.0
  3
$PAPER_SPACE
  1

  0
ENDBLK
  5
1003F
 67
     1
  8
0
  0
ENDSEC
  0
SECTION
  2
ENTITIES
  0
POLYLINE
  5
100
  8
LAYER_1
 62
     7
 66
     1
 10
0.0
 20
0.0
 30
0.0
  0
VERTEX
  5
10111
  8
LAYER_1
 62
     7
 10
0.062233
 20
1.138296
 30
0.0
  0
VERTEX
  5
10112
  8
LAYER_1
 62
     7
 10
0.080853
 20
1.069114
 30
0.0
  0
VERTEX
  5
10113
  8
LAYER_1
 62
     7
 10
0.099571
 20
0.999949
 30
0.0
  0
VERTEX
  5
10114
  8
LAYER_1
 62
     7
 10
0.118648
 20
0.930891
 30
0.0
  0
VERTEX
  5
10115
  8
LAYER_1
 62
     7
 10
0.138707
 20
0.862106
 30
0.0
  0
VERTEX
  5
10116
  8
LAYER_1
 62
     7
 10
0.161396
 20
0.794179
 30
0.0
  0
VERTEX
  5
10117
  8
LAYER_1
 62
     7
 10
0.192148
 20
0.729608
 30
0.0
  0
VERTEX
  5
10118
  8
LAYER_1
 62
     7
 10
0.242893
 20
0.679912
 30
0.0
  0
VERTEX
  5
10119
  8
LAYER_1
 62
     7
 10
0.306075
 20
0.646221
 30
0.0
  0
VERTEX
  5
1011A
  8
LAYER_1
 62
     7
 10
0.369722
 20
0.613923
 30
0.0
  0
VERTEX
  5
1011B
  8
LAYER_1
 62
     7
 10
0.432695
 20
0.580383
 30
0.0
  0
VERTEX
  5
1011C
  8
LAYER_1
 62
     7
 10
0.403746
 20
0.507542
 30
0.0
  0
VERTEX
  5
1011D
  8
LAYER_1
 62
     7
 10
0.375316
 20
0.442973
 30
0.0
  0
VERTEX
  5
1011E
  8
LAYER_1
 62
     7
 10
0.385969
 20
0.374606
 30
0.0
  0
VERTEX
  5
1011F
  8
LAYER_1
 62
     7
 10
0.421091
 20
0.313292
 30
0.0
  0
VERTEX
  5
10120
  8
LAYER_1
 62
     7
 10
0.459412
 20
0.253884
 30
0.0
  0
VERTEX
  5
10121
  8
LAYER_1
 62
     7
 10
0.532188
 20
0.145258
 30
0.0
  0
VERTEX
  5
10122
  8
LAYER_1
 62
     7
 10
0.616041
 20
0.045366
 30
0.0
  0
VERTEX
  5
10123
  8
LAYER_1
 62
     7
 10
0.73933
 20
0.020919
 30
0.0
  0
VERTEX
  5
10124
  8
LAYER_1
 62
     7
 10
0.844378
 20
0.011149
 30
0.0
  0
VERTEX
  5
10125
  8
LAYER_1
 62
     7
 10
0.960385
 20
0.00669
 30
0.0
  0
VERTEX
  5
10126
  8
LAYER_1
 62
     7
 10
1.064043
 20
0.080614
 30
0.0
  0
VERTEX
  5
10127
  8
LAYER_1
 62
     7
 10
1.115184
 20
0.126851
 30
0.0
  0
VERTEX
  5
10128
  8
LAYER_1
 62
     7
 10
1.166325
 20
0.173088
 30
0.0
  0
VERTEX
  5
10129
  8
LAYER_1
 62
     7
 10
1.164198
 20
0.250392
 30
0.0
  0
VERTEX
  5
1012A
  8
LAYER_1
 62
     7
 10
1.162071
 20
0.327695
 30
0.0
  0
VERTEX
  5
1012B
  8
LAYER_1
 62
     7
 10
1.158331
 20
0.41289
 30
0.0
  0
VERTEX
  5
1012C
  8
LAYER_1
 62
     7
 10
1.148494
 20
0.497387
 30
0.0
  0
VERTEX
  5
1012D
  8
LAYER_1
 62
     7
 10
1.231204
 20
0.523725
 30
0.0
  0
VERTEX
  5
1012E
  8
LAYER_1
 62
     7
 10
1.318674
 20
0.538637
 30
0.0
  0
VERTEX
  5
1012F
  8
LAYER_1
 62
     7
 10
1.390695
 20
0.550278
 30
0.0
  0
VERTEX
  5
10130
  8
LAYER_1
 62
     7
 10
1.46225
 20
0.564558
 30
0.0
  0
VERTEX
  5
10131
  8
LAYER_1
 62
     7
 10
1.533062
 20
0.582174
 30
0.0
  0
VERTEX
  5
10132
  8
LAYER_1
 62
     7
 10
1.602688
 20
0.603931
 30
0.0
  0
VERTEX
  5
10133
  8
LAYER_1
 62
     7
 10
1.670536
 20
0.630697
 30
0.0
  0
VERTEX
  5
10134
  8
LAYER_1
 62
     7
 10
1.73582
 20
0.663253
 30
0.0
  0
VERTEX
  5
10135
  8
LAYER_1
 62
     7
 10
1.797584
 20
0.70203
 30
0.0
  0
VERTEX
  5
10136
  8
LAYER_1
 62
     7
 10
1.855033
 20
0.746963
 30
0.0
  0
VERTEX
  5
10137
  8
LAYER_1
 62
     7
 10
1.907694
 20
0.797424
 30
0.0
  0
VERTEX
  5
10138
  8
LAYER_1
 62
     7
 10
1.955592
 20
0.852465
 30
0.0
  0
VERTEX
  5
10139
  8
LAYER_1
 62
     7
 10
1.999104
 20
0.911026
 30
0.0
  0
VERTEX
  5
1013A
  8
LAYER_1
 62
     7
 10
2.038847
 20
0.97221
 30
0.0
  0
VERTEX
  5
1013B
  8
LAYER_1
 62
     7
 10
2.075486
 20
1.03532
 30
0.0
  0
VERTEX
  5
1013C
  8
LAYER_1
 62
     7
 10
2.109614
 20
1.099811
 30
0.0
  0
VERTEX
  5
1013D
  8
LAYER_1
 62
     7
 10
2.142041
 20
1.165219
 30
0.0
  0
VERTEX
  5
1013E
  8
LAYER_1
 62
     7
 10
2.173456
 20
1.231146
 30
0.0
  0
VERTEX
  5
1013F
  8
LAYER_1
 62
     7
 10
2.204023
 20
1.297442
 30
0.0
  0
VERTEX
  5
10140
  8
LAYER_1
 62
     7
 10
2.233774
 20
1.364137
 30
0.0
  0
VERTEX
  5
10141
  8
LAYER_1
 62
     7
 10
2.262527
 20
1.431264
 30
0.0
  0
VERTEX
  5
10142
  8
LAYER_1
 62
     7
 10
2.289662
 20
1.499044
 30
0.0
  0
VERTEX
  5
10143
  8
LAYER_1
 62
     7
 10
2.324768
 20
1.590974
 30
0.0
  0
VERTEX
  5
10144
  8
LAYER_1
 62
     7
 10
2.361579
 20
1.682183
 30
0.0
  0
VERTEX
  5
10145
  8
LAYER_1
 62
     7
 10
2.46612
 20
1.60645
 30
0.0
  0
VERTEX
  5
10146
  8
LAYER_1
 62
     7
 10
2.557361
 20
1.542229
 30
0.0
  0
VERTEX
  5
10147
  8
LAYER_1
 62
     7
 10
2.658946
 20
1.496098
 30
0.0
  0
VERTEX
  5
10148
  8
LAYER_1
 62
     7
 10
2.76839
 20
1.475899
 30
0.0
  0
VERTEX
  5
10149
  8
LAYER_1
 62
     7
 10
2.840551
 20
1.488463
 30
0.0
  0
VERTEX
  5
1014A
  8
LAYER_1
 62
     7
 10
2.909446
 20
1.513952
 30
0.0
  0
VERTEX
  5
1014B
  8
LAYER_1
 62
     7
 10
2.976036
 20
1.545075
 30
0.0
  0
VERTEX
  5
1014C
  8
LAYER_1
 62
     7
 10
3.041018
 20
1.579389
 30
0.0
  0
VERTEX
  5
1014D
  8
LAYER_1
 62
     7
 10
3.10487
 20
1.615807
 30
0.0
  0
VERTEX
  5
1014E
  8
LAYER_1
 62
     7
 10
3.167847
 20
1.653714
 30
0.0
  0
VERTEX
  5
1014F
  8
LAYER_1
 62
     7
 10
3.230128
 20
1.692733
 30
0.0
  0
VERTEX
  5
10150
  8
LAYER_1
 62
     7
 10
3.291859
 20
1.732632
 30
0.0
  0
VERTEX
  5
10151
  8
LAYER_1
 62
     7
 10
3.390273
 20
1.796456
 30
0.0
  0
VERTEX
  5
10152
  8
LAYER_1
 62
     7
 10
3.489379
 20
1.85919
 30
0.0
  0
VERTEX
  5
10153
  8
LAYER_1
 62
     7
 10
3.590714
 20
1.917976
 30
0.0
  0
VERTEX
  5
10154
  8
LAYER_1
 62
     7
 10
3.703901
 20
1.851284
 30
0.0
  0
VERTEX
  5
10155
  8
LAYER_1
 62
     7
 10
3.771152
 20
1.807809
 30
0.0
  0
VERTEX
  5
10156
  8
LAYER_1
 62
     7
 10
3.840431
 20
1.767649
 30
0.0
  0
VERTEX
  5
10157
  8
LAYER_1
 62
     7
 10
3.911351
 20
1.730414
 30
0.0
  0
VERTEX
  5
10158
  8
LAYER_1
 62
     7
 10
3.98357
 20
1.695826
 30
0.0
  0
VERTEX
  5
10159
  8
LAYER_1
 62
     7
 10
4.056903
 20
1.663628
 30
0.0
  0
VERTEX
  5
1015A
  8
LAYER_1
 62
     7
 10
4.131162
 20
1.63364
 30
0.0
  0
VERTEX
  5
1015B
  8
LAYER_1
 62
     7
 10
4.20623
 20
1.605705
 30
0.0
  0
VERTEX
  5
1015C
  8
LAYER_1
 62
     7
 10
4.281986
 20
1.579708
 30
0.0
  0
VERTEX
  5
1015D
  8
LAYER_1
 62
     7
 10
4.358343
 20
1.555555
 30
0.0
  0
VERTEX
  5
1015E
  8
LAYER_1
 62
     7
 10
4.435242
 20
1.533169
 30
0.0
  0
VERTEX
  5
1015F
  8
LAYER_1
 62
     7
 10
4.512617
 20
1.512497
 30
0.0
  0
VERTEX
  5
10160
  8
LAYER_1
 62
     7
 10
4.590418
 20
1.4935
 30
0.0
  0
VERTEX
  5
10161
  8
LAYER_1
 62
     7
 10
4.668623
 20
1.476146
 30
0.0
  0
VERTEX
  5
10162
  8
LAYER_1
 62
     7
 10
4.747161
 20
1.460432
 30
0.0
  0
VERTEX
  5
10163
  8
LAYER_1
 62
     7
 10
4.826007
 20
1.446356
 30
0.0
  0
VERTEX
  5
10164
  8
LAYER_1
 62
     7
 10
4.90513
 20
1.433928
 30
0.0
  0
VERTEX
  5
10165
  8
LAYER_1
 62
     7
 10
4.984477
 20
1.423178
 30
0.0
  0
VERTEX
  5
10166
  8
LAYER_1
 62
     7
 10
5.064059
 20
1.414135
 30
0.0
  0
VERTEX
  5
10167
  8
LAYER_1
 62
     7
 10
5.143819
 20
1.406856
 30
0.0
  0
VERTEX
  5
10168
  8
LAYER_1
 62
     7
 10
5.223724
 20
1.401403
 30
0.0
  0
VERTEX
  5
10169
  8
LAYER_1
 62
     7
 10
5.30374
 20
1.397859
 30
0.0
  0
VERTEX
  5
1016A
  8
LAYER_1
 62
     7
 10
5.383823
 20
1.396322
 30
0.0
  0
VERTEX
  5
1016B
  8
LAYER_1
 62
     7
 10
5.454856
 20
1.396411
 30
0.0
  0
VERTEX
  5
1016C
  8
LAYER_1
 62
     7
 10
5.525883
 20
1.397768
 30
0.0
  0
VERTEX
  5
1016D
  8
LAYER_1
 62
     7
 10
5.596846
 20
1.400864
 30
0.0
  0
VERTEX
  5
1016E
  8
LAYER_1
 62
     7
 10
5.667678
 20
1.406418
 30
0.0
  0
VERTEX
  5
1016F
  8
LAYER_1
 62
     7
 10
5.738113
 20
1.415606
 30
0.0
  0
VERTEX
  5
10170
  8
LAYER_1
 62
     7
 10
5.807556
 20
1.430516
 30
0.0
  0
VERTEX
  5
10171
  8
LAYER_1
 62
     7
 10
5.874109
 20
1.455059
 30
0.0
  0
VERTEX
  5
10172
  8
LAYER_1
 62
     7
 10
5.931761
 20
1.495935
 30
0.0
  0
VERTEX
  5
10173
  8
LAYER_1
 62
     7
 10
5.967549
 20
1.556585
 30
0.0
  0
VERTEX
  5
10174
  8
LAYER_1
 62
     7
 10
5.97731
 20
1.626682
 30
0.0
  0
VERTEX
  5
10175
  8
LAYER_1
 62
     7
 10
5.964228
 20
1.700482
 30
0.0
  0
VERTEX
  5
10176
  8
LAYER_1
 62
     7
 10
5.930844
 20
1.76782
 30
0.0
  0
VERTEX
  5
10177
  8
LAYER_1
 62
     7
 10
5.885172
 20
1.827616
 30
0.0
  0
VERTEX
  5
10178
  8
LAYER_1
 62
     7
 10
5.832115
 20
1.881017
 30
0.0
  0
VERTEX
  5
10179
  8
LAYER_1
 62
     7
 10
5.774339
 20
1.929298
 30
0.0
  0
VERTEX
  5
1017A
  8
LAYER_1
 62
     7
 10
5.713325
 20
1.973469
 30
0.0
  0
VERTEX
  5
1017B
  8
LAYER_1
 62
     7
 10
5.650021
 20
2.014232
 30
0.0
  0
VERTEX
  5
1017C
  8
LAYER_1
 62
     7
 10
5.584953
 20
2.052163
 30
0.0
  0
VERTEX
  5
1017D
  8
LAYER_1
 62
     7
 10
5.518522
 20
2.087659
 30
0.0
  0
VERTEX
  5
1017E
  8
LAYER_1
 62
     7
 10
5.450994
 20
2.121036
 30
0.0
  0
VERTEX
  5
1017F
  8
LAYER_1
 62
     7
 10
5.382584
 20
2.152531
 30
0.0
  0
VERTEX
  5
10180
  8
LAYER_1
 62
     7
 10
5.313432
 20
2.182345
 30
0.0
  0
VERTEX
  5
10181
  8
LAYER_1
 62
     7
 10
5.243641
 20
2.210641
 30
0.0
  0
VERTEX
  5
10182
  8
LAYER_1
 62
     7
 10
5.173303
 20
2.237548
 30
0.0
  0
VERTEX
  5
10183
  8
LAYER_1
 62
     7
 10
5.102487
 20
2.263176
 30
0.0
  0
VERTEX
  5
10184
  8
LAYER_1
 62
     7
 10
5.031228
 20
2.287624
 30
0.0
  0
VERTEX
  5
10185
  8
LAYER_1
 62
     7
 10
4.911343
 20
2.325267
 30
0.0
  0
VERTEX
  5
10186
  8
LAYER_1
 62
     7
 10
4.790473
 20
2.359554
 30
0.0
  0
VERTEX
  5
10187
  8
LAYER_1
 62
     7
 10
4.668778
 20
2.390771
 30
0.0
  0
VERTEX
  5
10188
  8
LAYER_1
 62
     7
 10
4.545959
 20
2.417288
 30
0.0
  0
VERTEX
  5
10189
  8
LAYER_1
 62
     7
 10
4.467537
 20
2.431247
 30
0.0
  0
VERTEX
  5
1018A
  8
LAYER_1
 62
     7
 10
4.389154
 20
2.445428
 30
0.0
  0
VERTEX
  5
1018B
  8
LAYER_1
 62
     7
 10
4.311176
 20
2.461602
 30
0.0
  0
VERTEX
  5
1018C
  8
LAYER_1
 62
     7
 10
4.283854
 20
2.500813
 30
0.0
  0
VERTEX
  5
1018D
  8
LAYER_1
 62
     7
 10
4.35776
 20
2.53037
 30
0.0
  0
VERTEX
  5
1018E
  8
LAYER_1
 62
     7
 10
4.432783
 20
2.557138
 30
0.0
  0
VERTEX
  5
1018F
  8
LAYER_1
 62
     7
 10
4.508422
 20
2.585401
 30
0.0
  0
VERTEX
  5
10190
  8
LAYER_1
 62
     7
 10
4.583334
 20
2.615564
 30
0.0
  0
VERTEX
  5
10191
  8
LAYER_1
 62
     7
 10
4.657527
 20
2.647446
 30
0.0
  0
VERTEX
  5
10192
  8
LAYER_1
 62
     7
 10
4.731027
 20
2.680909
 30
0.0
  0
VERTEX
  5
10193
  8
LAYER_1
 62
     7
 10
4.803831
 20
2.715834
 30
0.0
  0
VERTEX
  5
10194
  8
LAYER_1
 62
     7
 10
4.87597
 20
2.752144
 30
0.0
  0
VERTEX
  5
10195
  8
LAYER_1
 62
     7
 10
4.947424
 20
2.789758
 30
0.0
  0
VERTEX
  5
10196
  8
LAYER_1
 62
     7
 10
5.018197
 20
2.828631
 30
0.0
  0
VERTEX
  5
10197
  8
LAYER_1
 62
     7
 10
5.088285
 20
2.868728
 30
0.0
  0
VERTEX
  5
10198
  8
LAYER_1
 62
     7
 10
5.157666
 20
2.910028
 30
0.0
  0
VERTEX
  5
10199
  8
LAYER_1
 62
     7
 10
5.226312
 20
2.952526
 30
0.0
  0
VERTEX
  5
1019A
  8
LAYER_1
 62
     7
 10
5.294198
 20
2.996239
 30
0.0
  0
VERTEX
  5
1019B
  8
LAYER_1
 62
     7
 10
5.361271
 20
3.041198
 30
0.0
  0
VERTEX
  5
1019C
  8
LAYER_1
 62
     7
 10
5.427455
 20
3.087448
 30
0.0
  0
VERTEX
  5
1019D
  8
LAYER_1
 62
     7
 10
5.492658
 20
3.135068
 30
0.0
  0
VERTEX
  5
1019E
  8
LAYER_1
 62
     7
 10
5.556753
 20
3.184176
 30
0.0
  0
VERTEX
  5
1019F
  8
LAYER_1
 62
     7
 10
5.61955
 20
3.23493
 30
0.0
  0
VERTEX
  5
101A0
  8
LAYER_1
 62
     7
 10
5.680784
 20
3.287571
 30
0.0
  0
VERTEX
  5
101A1
  8
LAYER_1
 62
     7
 10
5.74001
 20
3.342431
 30
0.0
  0
VERTEX
  5
101A2
  8
LAYER_1
 62
     7
 10
5.79655
 20
3.400079
 30
0.0
  0
VERTEX
  5
101A3
  8
LAYER_1
 62
     7
 10
5.849051
 20
3.461393
 30
0.0
  0
VERTEX
  5
101A4
  8
LAYER_1
 62
     7
 10
5.89454
 20
3.528029
 30
0.0
  0
VERTEX
  5
101A5
  8
LAYER_1
 62
     7
 10
5.923825
 20
3.602866
 30
0.0
  0
VERTEX
  5
101A6
  8
LAYER_1
 62
     7
 10
5.903368
 20
3.677627
 30
0.0
  0
VERTEX
  5
101A7
  8
LAYER_1
 62
     7
 10
5.841363
 20
3.710374
 30
0.0
  0
VERTEX
  5
101A8
  8
LAYER_1
 62
     7
 10
5.77265
 20
3.726856
 30
0.0
  0
VERTEX
  5
101A9
  8
LAYER_1
 62
     7
 10
5.702571
 20
3.736302
 30
0.0
  0
VERTEX
  5
101AA
  8
LAYER_1
 62
     7
 10
5.632026
 20
3.741362
 30
0.0
  0
VERTEX
  5
101AB
  8
LAYER_1
 62
     7
 10
5.561336
 20
3.743176
 30
0.0
  0
VERTEX
  5
101AC
  8
LAYER_1
 62
     7
 10
5.490617
 20
3.742334
 30
0.0
  0
VERTEX
  5
101AD
  8
LAYER_1
 62
     7
 10
5.419964
 20
3.739164
 30
0.0
  0
VERTEX
  5
101AE
  8
LAYER_1
 62
     7
 10
5.349451
 20
3.733854
 30
0.0
  0
VERTEX
  5
101AF
  8
LAYER_1
 62
     7
 10
5.270714
 20
3.726101
 30
0.0
  0
VERTEX
  5
101B0
  8
LAYER_1
 62
     7
 10
5.192113
 20
3.717011
 30
0.0
  0
VERTEX
  5
101B1
  8
LAYER_1
 62
     7
 10
5.113674
 20
3.706551
 30
0.0
  0
VERTEX
  5
101B2
  8
LAYER_1
 62
     7
 10
5.035461
 20
3.694687
 30
0.0
  0
VERTEX
  5
101B3
  8
LAYER_1
 62
     7
 10
4.957475
 20
3.681373
 30
0.0
  0
VERTEX
  5
101B4
  8
LAYER_1
 62
     7
 10
4.879753
 20
3.666562
 30
0.0
  0
VERTEX
  5
101B5
  8
LAYER_1
 62
     7
 10
4.80234
 20
3.650201
 30
0.0
  0
VERTEX
  5
101B6
  8
LAYER_1
 62
     7
 10
4.725267
 20
3.632228
 30
0.0
  0
VERTEX
  5
101B7
  8
LAYER_1
 62
     7
 10
4.648632
 20
3.612585
 30
0.0
  0
VERTEX
  5
101B8
  8
LAYER_1
 62
     7
 10
4.572459
 20
3.59119
 30
0.0
  0
VERTEX
  5
101B9
  8
LAYER_1
 62
     7
 10
4.496814
 20
3.567955
 30
0.0
  0
VERTEX
  5
101BA
  8
LAYER_1
 62
     7
 10
4.421815
 20
3.542796
 30
0.0
  0
VERTEX
  5
101BB
  8
LAYER_1
 62
     7
 10
4.347507
 20
3.515589
 30
0.0
  0
VERTEX
  5
101BC
  8
LAYER_1
 62
     7
 10
4.274043
 20
3.486223
 30
0.0
  0
VERTEX
  5
101BD
  8
LAYER_1
 62
     7
 10
4.201542
 20
3.454555
 30
0.0
  0
VERTEX
  5
101BE
  8
LAYER_1
 62
     7
 10
4.130165
 20
3.420426
 30
0.0
  0
VERTEX
  5
101BF
  8
LAYER_1
 62
     7
 10
4.060106
 20
3.383654
 30
0.0
  0
VERTEX
  5
101C0
  8
LAYER_1
 62
     7
 10
3.991624
 20
3.344045
 30
0.0
  0
VERTEX
  5
101C1
  8
LAYER_1
 62
     7
 10
3.925001
 20
3.301363
 30
0.0
  0
VERTEX
  5
101C2
  8
LAYER_1
 62
     7
 10
3.860621
 20
3.255362
 30
0.0
  0
VERTEX
  5
101C3
  8
LAYER_1
 62
     7
 10
3.798968
 20
3.205784
 30
0.0
  0
VERTEX
  5
101C4
  8
LAYER_1
 62
     7
 10
3.740627
 20
3.152349
 30
0.0
  0
VERTEX
  5
101C5
  8
LAYER_1
 62
     7
 10
3.66281
 20
3.075909
 30
0.0
  0
VERTEX
  5
101C6
  8
LAYER_1
 62
     7
 10
3.584994
 20
2.99947
 30
0.0
  0
VERTEX
  5
101C7
  8
LAYER_1
 62
     7
 10
3.522673
 20
3.061734
 30
0.0
  0
VERTEX
  5
101C8
  8
LAYER_1
 62
     7
 10
3.460353
 20
3.123998
 30
0.0
  0
VERTEX
  5
101C9
  8
LAYER_1
 62
     7
 10
3.410869
 20
3.171516
 30
0.0
  0
VERTEX
  5
101CA
  8
LAYER_1
 62
     7
 10
3.359738
 20
3.217232
 30
0.0
  0
VERTEX
  5
101CB
  8
LAYER_1
 62
     7
 10
3.307188
 20
3.261313
 30
0.0
  0
VERTEX
  5
101CC
  8
LAYER_1
 62
     7
 10
3.25336
 20
3.303816
 30
0.0
  0
VERTEX
  5
101CD
  8
LAYER_1
 62
     7
 10
3.198306
 20
3.344733
 30
0.0
  0
VERTEX
  5
101CE
  8
LAYER_1
 62
     7
 10
3.142025
 20
3.383947
 30
0.0
  0
VERTEX
  5
101CF
  8
LAYER_1
 62
     7
 10
3.08443
 20
3.421226
 30
0.0
  0
VERTEX
  5
101D0
  8
LAYER_1
 62
     7
 10
3.025373
 20
3.45609
 30
0.0
  0
VERTEX
  5
101D1
  8
LAYER_1
 62
     7
 10
2.964464
 20
3.487634
 30
0.0
  0
VERTEX
  5
101D2
  8
LAYER_1
 62
     7
 10
2.901025
 20
3.513618
 30
0.0
  0
VERTEX
  5
101D3
  8
LAYER_1
 62
     7
 10
2.836405
 20
3.530897
 30
0.0
  0
VERTEX
  5
101D4
  8
LAYER_1
 62
     7
 10
2.770072
 20
3.539416
 30
0.0
  0
VERTEX
  5
101D5
  8
LAYER_1
 62
     7
 10
2.703232
 20
3.538
 30
0.0
  0
VERTEX
  5
101D6
  8
LAYER_1
 62
     7
 10
2.637344
 20
3.526604
 30
0.0
  0
VERTEX
  5
101D7
  8
LAYER_1
 62
     7
 10
2.573603
 20
3.506342
 30
0.0
  0
VERTEX
  5
101D8
  8
LAYER_1
 62
     7
 10
2.512593
 20
3.478926
 30
0.0
  0
VERTEX
  5
101D9
  8
LAYER_1
 62
     7
 10
2.448571
 20
3.436076
 30
0.0
  0
VERTEX
  5
101DA
  8
LAYER_1
 62
     7
 10
2.389544
 20
3.386422
 30
0.0
  0
VERTEX
  5
101DB
  8
LAYER_1
 62
     7
 10
2.333439
 20
3.333469
 30
0.0
  0
VERTEX
  5
101DC
  8
LAYER_1
 62
     7
 10
2.279951
 20
3.277887
 30
0.0
  0
VERTEX
  5
101DD
  8
LAYER_1
 62
     7
 10
2.229686
 20
3.219347
 30
0.0
  0
VERTEX
  5
101DE
  8
LAYER_1
 62
     7
 10
2.18599
 20
3.155881
 30
0.0
  0
VERTEX
  5
101DF
  8
LAYER_1
 62
     7
 10
2.124707
 20
3.110071
 30
0.0
  0
VERTEX
  5
101E0
  8
LAYER_1
 62
     7
 10
2.045232
 20
3.104956
 30
0.0
  0
VERTEX
  5
101E1
  8
LAYER_1
 62
     7
 10
1.968255
 20
3.108012
 30
0.0
  0
VERTEX
  5
101E2
  8
LAYER_1
 62
     7
 10
1.891642
 20
3.11619
 30
0.0
  0
VERTEX
  5
101E3
  8
LAYER_1
 62
     7
 10
1.815555
 20
3.128366
 30
0.0
  0
VERTEX
  5
101E4
  8
LAYER_1
 62
     7
 10
1.740061
 20
3.143754
 30
0.0
  0
VERTEX
  5
101E5
  8
LAYER_1
 62
     7
 10
1.665139
 20
3.16179
 30
0.0
  0
VERTEX
  5
101E6
  8
LAYER_1
 62
     7
 10
1.590785
 20
3.182052
 30
0.0
  0
VERTEX
  5
101E7
  8
LAYER_1
 62
     7
 10
1.516992
 20
3.204213
 30
0.0
  0
VERTEX
  5
101E8
  8
LAYER_1
 62
     7
 10
1.443697
 20
3.22803
 30
0.0
  0
VERTEX
  5
101E9
  8
LAYER_1
 62
     7
 10
1.370895
 20
3.253298
 30
0.0
  0
VERTEX
  5
101EA
  8
LAYER_1
 62
     7
 10
1.298551
 20
3.279857
 30
0.0
  0
VERTEX
  5
101EB
  8
LAYER_1
 62
     7
 10
1.229242
 20
3.305141
 30
0.0
  0
VERTEX
  5
101EC
  8
LAYER_1
 62
     7
 10
1.159392
 20
3.328814
 30
0.0
  0
VERTEX
  5
101ED
  8
LAYER_1
 62
     7
 10
1.08891
 20
3.350555
 30
0.0
  0
VERTEX
  5
101EE
  8
LAYER_1
 62
     7
 10
1.017737
 20
3.369914
 30
0.0
  0
VERTEX
  5
101EF
  8
LAYER_1
 62
     7
 10
0.9458
 20
3.386261
 30
0.0
  0
VERTEX
  5
101F0
  8
LAYER_1
 62
     7
 10
0.87311
 20
3.398663
 30
0.0
  0
VERTEX
  5
101F1
  8
LAYER_1
 62
     7
 10
0.7997
 20
3.405708
 30
0.0
  0
VERTEX
  5
101F2
  8
LAYER_1
 62
     7
 10
0.725978
 20
3.405103
 30
0.0
  0
VERTEX
  5
101F3
  8
LAYER_1
 62
     7
 10
0.653327
 20
3.393088
 30
0.0
  0
VERTEX
  5
101F4
  8
LAYER_1
 62
     7
 10
0.585781
 20
3.364108
 30
0.0
  0
VERTEX
  5
101F5
  8
LAYER_1
 62
     7
 10
0.527886
 20
3.313826
 30
0.0
  0
VERTEX
  5
101F6
  8
LAYER_1
 62
     7
 10
0.495778
 20
3.244649
 30
0.0
  0
VERTEX
  5
101F7
  8
LAYER_1
 62
     7
 10
0.498651
 20
3.168222
 30
0.0
  0
VERTEX
  5
101F8
  8
LAYER_1
 62
     7
 10
0.525927
 20
3.096357
 30
0.0
  0
VERTEX
  5
101F9
  8
LAYER_1
 62
     7
 10
0.566303
 20
3.030823
 30
0.0
  0
VERTEX
  5
101FA
  8
LAYER_1
 62
     7
 10
0.614105
 20
2.97044
 30
0.0
  0
VERTEX
  5
101FB
  8
LAYER_1
 62
     7
 10
0.666566
 20
2.91406
 30
0.0
  0
VERTEX
  5
101FC
  8
LAYER_1
 62
     7
 10
0.722231
 20
2.860816
 30
0.0
  0
VERTEX
  5
101FD
  8
LAYER_1
 62
     7
 10
0.805943
 20
2.783605
 30
0.0
  0
VERTEX
  5
101FE
  8
LAYER_1
 62
     7
 10
0.787208
 20
2.744069
 30
0.0
  0
VERTEX
  5
101FF
  8
LAYER_1
 62
     7
 10
0.71643
 20
2.762331
 30
0.0
  0
VERTEX
  5
10200
  8
LAYER_1
 62
     7
 10
0.648494
 20
2.789315
 30
0.0
  0
VERTEX
  5
10201
  8
LAYER_1
 62
     7
 10
0.584399
 20
2.824462
 30
0.0
  0
VERTEX
  5
10202
  8
LAYER_1
 62
     7
 10
0.523543
 20
2.865027
 30
0.0
  0
VERTEX
  5
10203
  8
LAYER_1
 62
     7
 10
0.464859
 20
2.908637
 30
0.0
  0
VERTEX
  5
10204
  8
LAYER_1
 62
     7
 10
0.407444
 20
2.953946
 30
0.0
  0
VERTEX
  5
10205
  8
LAYER_1
 62
     7
 10
0.315805
 20
3.023574
 30
0.0
  0
VERTEX
  5
10206
  8
LAYER_1
 62
     7
 10
0.217098
 20
3.081682
 30
0.0
  0
VERTEX
  5
10207
  8
LAYER_1
 62
     7
 10
0.130125
 20
3.016783
 30
0.0
  0
VERTEX
  5
10208
  8
LAYER_1
 62
     7
 10
0.087275
 20
2.912405
 30
0.0
  0
VERTEX
  5
10209
  8
LAYER_1
 62
     7
 10
0.064873
 20
2.792908
 30
0.0
  0
VERTEX
  5
1020A
  8
LAYER_1
 62
     7
 10
0.066668
 20
2.67142
 30
0.0
  0
VERTEX
  5
1020B
  8
LAYER_1
 62
     7
 10
0.0898
 20
2.551987
 30
0.0
  0
VERTEX
  5
1020C
  8
LAYER_1
 62
     7
 10
0.106821
 20
2.457108
 30
0.0
  0
VERTEX
  5
1020D
  8
LAYER_1
 62
     7
 10
0.080079
 20
2.365467
 30
0.0
  0
VERTEX
  5
1020E
  8
LAYER_1
 62
     7
 10
0.045337
 20
2.243876
 30
0.0
  0
VERTEX
  5
1020F
  8
LAYER_1
 62
     7
 10
0.042629
 20
2.117098
 30
0.0
  0
VERTEX
  5
10210
  8
LAYER_1
 62
     7
 10
0.073798
 20
1.994673
 30
0.0
  0
VERTEX
  5
10211
  8
LAYER_1
 62
     7
 10
0.077702
 20
1.895
 30
0.0
  0
VERTEX
  5
10212
  8
LAYER_1
 62
     7
 10
0.038478
 20
1.829043
 30
0.0
  0
VERTEX
  5
10213
  8
LAYER_1
 62
     7
 10
0.019928
 20
1.753777
 30
0.0
  0
VERTEX
  5
10214
  8
LAYER_1
 62
     7
 10
0.010462
 20
1.676775
 30
0.0
  0
VERTEX
  5
10215
  8
LAYER_1
 62
     7
 10
0.00669
 20
1.599251
 30
0.0
  0
VERTEX
  5
10216
  8
LAYER_1
 62
     7
 10
0.007219
 20
1.521636
 30
0.0
  0
VERTEX
  5
10217
  8
LAYER_1
 62
     7
 10
0.011398
 20
1.44415
 30
0.0
  0
VERTEX
  5
10218
  8
LAYER_1
 62
     7
 10
0.018943
 20
1.366903
 30
0.0
  0
VERTEX
  5
10219
  8
LAYER_1
 62
     7
 10
0.029803
 20
1.290063
 30
0.0
  0
VERTEX
  5
1021A
  8
LAYER_1
 62
     7
 10
0.044122
 20
1.213771
 30
0.0
  0
VERTEX
  5
1021B
  8
LAYER_1
 62
     7
 10
0.062233
 20
1.138303
 30
0.0
  0
VERTEX
  5
1021C
  8
LAYER_1
 62
     7
 10
0.062233
 20
1.138303
 30
0.0
  0
SEQEND
  5
1021F
  8
LAYER_1
 62
     7
  0
VIEWPORT
  5
10108
 67
     1
  8
0
 62
    18
 10
128.5
 20
97.5
 30
0.0
 40
314.226
 41
222.18
 68
     1
 69
     1
1001
ACAD
1000
MVIEW
1002
{
1070
    16
1010
0.0
1020
0.0
1030
0.0
1010
0.0
1020
0.0
1030
1.0
1040
0.0
1040
222.18
1040
128.5
1040
97.5
1040
50.0
1040
0.0
1040
0.0
1070
     0
1070
   100
1070
     0
1070
     3
1070
     0
1070
     0
1070
     0
1070
     0
1040
0.0
1040
0.0
1040
0.0
1040
10.0
1040
10.0
1040
10.0
1040
10.0
1070
     0
1002
{
1002
}
1002
}
  0
ENDSEC
  0
EOF
